<?xml version="1.0" encoding="UTF-8"?>
<svg id="Layer_2" data-name="Layer 2" xmlns="http://www.w3.org/2000/svg" viewBox="0 0 391.85 125.5">
  <defs>
    <style>
      .cls-1 {
        fill: #b51e3b;
      }

      .cls-2 {
        fill: #231e20;
      }
    </style>
  </defs>
  <g id="Layer_1-2" data-name="Layer 1">
    <g>
      <path class="cls-2" d="m287.65,86.52c-4.16-7.44-8.32-14.87-12.51-22.3-.61-1.13-1.21-2.26-1.79-3.4-.04-.08.03-.24.11-.29.94-.46,2.02-.61,2.93-1.15.3.03.58,0,.79-.26,3.27-1.28,6.46-3.47,7.47-7.01h0c.21-.25.47-.86.41-1.16.02-.14.05-.28.07-.41.13-.08.16-.18.07-.31.06-.42.11-.84.17-1.25.12-.08.15-.18.08-.31.09-.37.04-.73.01-1.1.06-.98.06-1.97-.02-2.95-.03-.01-.06-.03-.08-.05.02.02.05.03.08.05.02-.07.03-.15.05-.22.06-.27.03-.51-.18-.71-.14-.54-.29-1.07-.46-1.6.05-.2,0-.37-.18-.48-.02-.14-.05-.27-.07-.41.07-.22-.03-.36-.2-.47-1.48-4.07-5.07-6.9-9.04-8.4-.2-.22-.43-.33-.73-.26-.18-.2-.41-.28-.67-.24-.24-.27-.64-.28-.98-.21-.27-.07-.53-.14-.8-.21-.15-.13-.31-.22-.5-.24-1.69-.19-3.38-.23-5.07-.21-5.28.02-10.55-.04-15.83.02-2.47,0-4.93,0-7.4-.05-.16,0-.29.06-.37.2l-.03.04c-.17.01-.21.11-.14.25,0,.06,0,.12,0,.18-.1.26-.09.51.1.74-.01.65-.03,1.31-.04,1.96-.1.12-.09.22.03.31.03,10.2.04,20.4,0,30.6-.12.09-.13.2-.03.31,0,.8,0,1.6,0,2.4-.1.12-.08.22.04.32.03,4.97.02,9.95,0,14.92-.12.09-.13.2-.04.32,0,1.18.02,2.36.03,3.55-.12.09-.13.2-.03.31,0,.12,0,.24-.01.36,0,.1-.01.21-.02.31.03-.04.06-.07.08-.09-.02.02-.04.05-.08.09.05.14.1.28.14.42.23.29.59.21.93.22,3.38,0,6.76,0,10.15,0,.3,0,.61.02.83-.22.5-17.44-.04-35.17.19-52.71,2.76-.06,5.55.1,8.29-.08.26.02.52.14.78.06.36.18.73.3,1.14.22.22.12.43.25.69.21.29.21.59.34.95.27,3.12,1.15,5.57,3.9,6.11,7.22-.1.28,0,.51.18.72.01.22.03.43.04.65-.1.09,0,.17.03.26.22,1.04.1,2.1.11,3.15-.2.13-.22.3-.14.5-.03.59-.07,1.17-.1,1.76-.19.13-.2.31-.12.51,0,.07-.02.14-.03.2-.13.05-.05.15-.04.24-.02.13-.05.27-.07.4.05.1.05.18.02.26.03-.08.03-.16-.02-.26-.18.12-.18.29-.13.48-.87,3.31-3.72,5.98-7.02,6.8-.48-.02-.96-.05-1.4.19-.38.03-.76.07-1.1.28.07.02.14.05.21.07.38-.1.77-.19,1.15-.29-.38.1-.77.19-1.15.29-.07.03-.13.06-.2.09.07-.03.13-.07.2-.09-.07-.02-.14-.05-.21-.07-.76,0-1.53,0-2.29.01,0,0,.03-.03.03-.03-.15-.2-.36-.29-.48.03,0,.1-.02.19-.02.29,0,0,0,0,0,.02,0,0,0-.02,0-.02l-.06.03s.06,0,.06,0c1.82,3.35,3.52,6.76,5.16,10.2,1.78,2.95,2.92,6.23,4.65,9.19,1.66,2.88,2.79,6.04,4.48,8.9.44.49,1.44.13,2.06.23,3.72,0,7.44.01,11.16.02.2.03.33-.12.46-.25.07-.19.08-.38-.04-.54-.33-.42-.53-.91-.79-1.37Zm-36.01-55.33c-.3,0-.6-.03-.9-.04h0c.3.01.6.04.9.04Zm3.5,4.36s.1-.07.16-.1c.03-.02.06-.05.09-.07-.03.02-.06.05-.09.07-.06.03-.12.06-.16.1Zm8.11-.04h0c.13-.02.25-.04.37-.04-.13,0-.25.01-.37.04Z"/>
      <path class="cls-2" d="m122.53,87.32c6.35-1.71,12.05-5.61,15.33-11.39.15-.1.28-.21.24-.42,0,0,.01-.03.01-.03.26-.15.37-.4.39-.68,0,0,.02-.04.02-.04.15-.1.28-.21.22-.42.02-.06.04-.13.06-.19.28-.24.43-.54.43-.91,0,0,0-.02,0-.02.18-.11.26-.25.19-.46.01-.07.03-.13.05-.2.17-.12.25-.27.18-.48.02-.07.03-.14.04-.2.14-.13.26-.27.18-.48-.04.03-.08.06-.11.1.03-.03.07-.07.11-.1.02-.14.04-.28.07-.41.16-.12.24-.28.18-.48,0,0,.01-.01.01-.01.2-.19.31-.4.22-.68.02-.22.04-.43.06-.65.21-.38.42-.8.34-1.21.02-.14.04-.27.05-.41.14-.38.16-.77.19-1.17.03-.07.03-.13-.01-.2.03-.22.05-.44.08-.66.12-.14.19-.29.14-.47.34-3.87.19-7.78-.61-11.58.05-.2.01-.37-.17-.49-.03-.21-.05-.42-.08-.63.07-.21.02-.37-.17-.49,0,0,0-.02,0-.02.04-.19.03-.36-.17-.46-.04-.2-.08-.41-.12-.61.08-.21,0-.37-.16-.5-.01-.07-.03-.13-.04-.2.07-.21.02-.37-.18-.49-.02-.06-.04-.13-.05-.19.06-.21-.01-.36-.19-.47,0,0,0-.02,0-.02.03-.38-.15-.67-.42-.92-3.05-6.99-8.98-12.7-16.32-14.98-.16-.18-.36-.24-.59-.22-.1-.05-.2-.14-.3-.15-.96-.12-1.81-.6-2.77-.74-.45-.41-1.08-.24-1.63-.26-.28-.28-.63-.25-.98-.21-.05-.02-.09-.01-.13.01-.55-.36-1.24-.21-1.86-.26-.77-.34-1.69-.11-2.52-.19-3.73,0-7.45-.02-11.18-.02-2.78.02-5.57-.04-8.36.03-.14,0-.17.13-.21.23-.18,18.99-.19,38.18.01,57.21.17.24.41.28.68.26,6.96-.15,15.33.29,22.04-.18,1.67.01,3.37-.09,4.98-.52.41.09.78-.05,1.13-.25.08,0,.16,0,.24.01.41-.01.9.11,1.19-.25.1-.06.18-.15.29-.18Zm6.23-14.29s.03-.08.03-.13c0,.05-.01.09-.03.13Zm.5-1.58s0-.08,0-.13c0,.04,0,.09,0,.13Zm.77-3.61c.06-.11.1-.23.1-.35,0,.13-.04.24-.1.35Zm-.31-15.34c-.02-.08-.06-.15-.15-.21.09.06.13.13.15.21Zm-.69-2.97s-.04-.07-.07-.11c.03.03.05.07.07.11Zm-1.36-3.28c0-.07-.03-.14-.08-.19.05.05.07.12.08.19Zm-7.6-8.8c2.52,1.64,4.74,3.83,6.22,6.46-.02.13.02.22.16.25.03.06.06.12.09.18h0c-.02.14.04.22.18.25l.02.03c-.04.21.09.31.24.4v.02h.01c-.05.21.08.32.23.42v.03c-.04.21.07.33.22.43v.03c-.04.2.08.33.22.44v.02h0c-.06.21.04.35.2.46.02-.09.01-.17-.02-.23.03.07.04.14.02.23.08.15.16.3.25.45-.04.2.02.36.18.48.18.51.36,1.03.55,1.54h0c-.06.2.06.33.18.46.04.22.08.44.13.67-.02.36.04.69.29.97.04.28.08.57.12.85h0c-.09.2.01.34.13.49.3,1.41.56,2.83.56,4.28.09.07.12.15.09.23.03-.08,0-.16-.09-.23-.1.12-.08.22.04.31.05.58.1,1.17.14,1.75,0,.09.01.17.02.26,0,.82-.01,1.64-.02,2.47,0,.09.01.17.02.26-.03.52-.05,1.05-.08,1.57h0c-.12.16-.22.31-.07.5-.02.27-.04.54-.06.81-.1.1-.11.2-.03.31-.04.66-.07,1.33-.11,1.99h0c-.23.19-.26.44-.17.71-.02.21-.04.42-.06.64-.22.2-.22.46-.16.72-.02.07-.03.13-.04.2h0c-.17.13-.23.29-.15.5-.03.39-.13.76-.27,1.12h0c-.13.14-.23.29-.13.49-.03.14-.07.28-.1.41h0c-.18.19-.3.39-.23.66v.02c-.16.12-.26.26-.19.47-.02.06-.04.13-.06.19-.14.05-.2.13-.15.28-.03.06-.04.13-.06.19h0c-.16.12-.24.27-.19.47-1.88,3.75-4.84,7.09-8.83,8.6-.16.13-.33.26-.53.27.2-.01.36-.13.53-.27-.28-.04-.53.02-.73.23-.29-.07-.54.01-.73.25-.12.07-.23.13-.35.2-.07.07-.15.11-.22.15.08-.04.15-.08.22-.15-.34.04-.73-.08-.98.21-.27-.03-.5.03-.67.24-.49-.03-.98-.04-1.42.24-.49.05-.94.29-1.45.24-.34.21-.71.23-1.09.23.38,0,.76-.02,1.09-.23-3.35-.03-6.7.05-10.05-.03-.13-.2-.08-.42-.09-.64h0c0-.09.01-.17.02-.26h0c-.02-2.94.06-5.89-.02-8.83.11-.24.12-.47,0-.71,0-.44,0-.89,0-1.33,0-.09,0-.17.01-.26,0-.52-.01-1.04-.01-1.56,0-.09.01-.17.01-.26,0-.29,0-.58-.01-.88.09-.16.1-.32,0-.49,0-.14,0-.28,0-.42,0-.09,0-.17.01-.26,0-.9,0-1.8-.01-2.69.09-.16.1-.32,0-.49,0-.44,0-.89,0-1.33.09-.16.09-.32,0-.49,0-.22,0-.43.01-.65,0-.09,0-.17-.01-.26,0-.44,0-.89,0-1.33,0-.09,0-.17.01-.26,0-.52,0-1.04-.01-1.56,0-.09,0-.17.01-.26,0-.59-.01-1.19-.02-1.78,0-.09,0-.17.01-.26,0-.22,0-.43-.01-.65,0-.09,0-.17.01-.26h0c0-.22,0-.43-.01-.65,0-.09,0-.17.01-.26,0-.37,0-.74,0-1.1,0-.09,0-.17,0-.26l.02-.65c0-.09,0-.17-.01-.26v-.42c.08-.16.09-.32,0-.49,0-.22.01-.43.02-.65,0-.09,0-.17-.01-.26,0-.44,0-.89,0-1.33.11-.24.12-.47,0-.71,0-.75,0-1.49,0-2.24,0-.09,0-.17.01-.26,0-1.2,0-2.4-.01-3.6.09-.16.09-.32,0-.49,0-.22.01-.43.02-.65,0-.09,0-.17-.01-.26,0-.22,0-.43,0-.65,0-.09,0-.17,0-.26,0-.22,0-.43.01-.65,0-.09,0-.17-.01-.26.08-1.65-.14-3.35.1-4.96.01-.03.02-.06.03-.09-.01.03-.02.06-.03.09,2.71-.04,5.43-.02,8.14-.03,1,.19,2.02.2,3.03.23,0,0,0,0,0,0,0,0,.09,0,.09,0,.22.03.44.06.66.09-.22-.03-.44-.06-.66-.09.49.46,1.27.3,1.89.45l-.03.02c.19.26.46.27.74.23,1.16.36,2.25.85,3.29,1.48Zm.74,50.27s.03-.06.04-.08c-.02.02-.03.05-.04.08h0Zm-4.99-3.62h0c-.11.06-.22.1-.33.14.11-.04.22-.09.33-.14Zm.67-.24h0c-.09.08-.17.14-.27.19.09-.05.18-.12.27-.19Zm2.06-.66h0c-.17.11-.34.21-.53.24.19-.03.36-.14.53-.24Zm-3.24,1.09c-.18.04-.35.07-.54.08.18,0,.36-.03.54-.08Zm-1.84-49.23c-.81-.02-1.63-.09-2.43-.2-.34-.02-.68-.06-1.02-.07.34,0,.68.04,1.01.07.81.11,1.62.18,2.43.2Zm.17.01c.05,0,.11.02.16.03-.05-.02-.11-.03-.16-.03Zm7.45,52.5s-.07-.01-.09,0c.03,0,.06,0,.09,0h0Z"/>
      <path class="cls-2" d="m330.07,88.41c.16.25.41.27.68.25,3.28,0,6.57,0,9.85,0,.57,0,1.13.02,1.7.03.2,0,.36-.08.44-.28.15-.55-.34-.96-.43-1.48-.6-2.33-1.45-4.57-2.04-6.89.06-.2.04-.37-.15-.49-.02-.07-.04-.14-.05-.22.06-.27.02-.5-.21-.67,0,0,0-.02,0-.02.05-.26.06-.5-.19-.68-.09-.37-.19-.75-.28-1.12.07-.34-.03-.63-.25-.89-1.1-3.4-2.11-6.84-3.16-10.25.05-.23,0-.46-.08-.67.02-.11-.03-.19-.13-.23,0,0,0-.01,0-.01.06-.27,0-.5-.22-.67-.23-.83-.46-1.67-.7-2.5-.02-.08-.04-.16-.05-.24-.29-1.05-.63-2.08-.97-3.12.11-.2.02-.35-.12-.49,0,0,0-.01,0-.01.05-.21-.04-.35-.21-.46-.03-.14-.06-.28-.08-.41.1-.21,0-.35-.15-.48,0,0,0-.01,0-.01.04-.37-.17-.66-.35-.96-.04-.21-.07-.42-.11-.64.05-.21-.02-.36-.2-.46-.16-.53-.32-1.06-.48-1.59-.02-.08-.04-.16-.06-.24h0l-.08-.37c.09-.13.03-.21-.07-.29,0,0,0-.02,0-.02.05-.2.01-.36-.19-.46-.07-.38-.13-.76-.29-1.11.07-.27-.05-.49-.22-.68h0c-.02-.14-.04-.28-.07-.42,0-.08.01-.16.02-.25.01-.12-.03-.21-.15-.25,0,0,0-.02,0-.02.01-.32.04-.64-.23-.88,0,0,0-.02,0-.02.06-.27,0-.5-.22-.67-.02-.06-.04-.13-.04-.2.07-.2.03-.37-.16-.49-.23-.58-.32-1.19-.52-1.79.05-.21-.04-.35-.2-.47-.01-.07-.03-.13-.05-.2.07-.21,0-.36-.18-.48,0,0,0-.02,0-.02.07-.27-.05-.48-.24-.66-.04-.21-.08-.43-.12-.64.09-.13.01-.21-.1-.27,0,0,0-.02,0-.02.04-.2-.02-.36-.2-.46-.03-.13-.05-.27-.08-.4.07-.21,0-.36-.17-.49,0,0,0-.02,0-.02.07-.27-.05-.48-.24-.66-.01-.07-.03-.14-.05-.2.07-.2.03-.37-.16-.5,0-.07-.03-.13-.05-.19.06-.21-.06-.34-.19-.48,0-.07-.02-.14-.03-.21.07-.21.02-.37-.18-.48,0,0,0-.02,0-.02.05-.27-.06-.47-.25-.64-.81-2.42-2.14-5.01-4.48-6.25-.75-.33-1.44-.83-2.31-.84-.22,0-.43-.11-.65-.18-1.14-.54-2.63-.13-3.87-.24-.26,0-.51.07-.74.23-.64.01-1.35.11-1.87.47-4.51,1.58-6.32,6.59-7.24,10.87-.16.12-.25.26-.2.47-.16.53-.31,1.06-.47,1.58-.18.12-.25.27-.17.48h0c-.03.21-.07.42-.1.62h0c-.3.34-.43.73-.39,1.18-.02.07-.03.13-.05.2-.18.12-.22.29-.17.49-.07.21-.19.41-.21.62-.09.97-.53,1.83-.72,2.78-.21.27-.27.57-.22.91-.24,1.06-.59,2.08-.8,3.14-.13.05-.15.15-.1.27-.43,1.92-1.05,3.79-1.6,5.67-.17.2-.27.41-.22.68-.06.18-.17.35-.18.53-.06.76-.39,1.43-.55,2.17-.17.13-.23.29-.17.49-.02.06-.04.13-.05.2-.23.19-.25.44-.18.71-.09.37-.17.74-.26,1.11-.16.13-.24.29-.16.49-.02.07-.03.13-.05.2-.19.19-.31.4-.22.68h0c-.03.21-.06.42-.09.64h0c-.2.12-.23.3-.15.5-.03.14-.06.27-.08.41-.13.08-.14.18-.07.31l-.08.41c-.17.12-.25.27-.19.48-.11.36-.25.72-.27,1.11-.17.12-.24.28-.18.48-.2.91-.5,1.8-.73,2.7-.16.12-.25.27-.19.48-.06.29-.12.58-.18.87-.09,0-.12.11-.07.25,0,0,0,.01,0,.01-.17.11-.26.25-.2.46-.33,1.45-.81,2.86-1.18,4.29-.18.12-.24.28-.17.49-.06.29-.11.57-.17.86-.09,0-.13.13-.07.27-.08.38-.15.76-.23,1.14-.17.18-.29.39-.24.65,0,0,0,0,0,0-.09,0-.14.13-.09.25.08,0,.12-.06.11-.15,0,.09-.03.15-.11.15-.04.22-.09.44-.13.66.08.27-.06.48-.23.67-.06.31-.13.62-.19.93-.11.02-.05.1-.05.18,0,0,0,.03,0,.03-.24.17-.27.41-.22.68-.01.07-.03.14-.04.21-.19.11-.21.28-.18.47-.11.22-.29.41-.18.69.06.15.18.24.34.24,1.61,0,3.21.01,4.82.01.21.02.32-.14.44-.28.03-.13.07-.26.1-.39.19-.12.21-.29.16-.49h0c.09-.29.18-.59.27-.88.17-.13.22-.29.16-.5.02-.07.04-.13.04-.2.14-.13.25-.27.18-.48.02-.07.04-.14.04-.21.21-.27.26-.59.2-.92.3-.88.61-1.76.74-2.69.17-.13.22-.3.15-.5.04-.21.08-.41.12-.62.18-.12.19-.3.14-.49,0,0,0-.01,0-.01.15-.12.25-.26.18-.47.02-.07.04-.13.05-.2.09,0,.12-.15.06-.27.04-.21.09-.43.13-.64.16-.21.32-.41.24-.69.03-.21.06-.42.08-.63.17-.12.22-.29.17-.48.09-.3.18-.59.26-.89.22-.19.24-.43.19-.7,0,0,.01-.01.01-.01.15-.12.27-.26.19-.48.03-.21.05-.42.08-.64.19-.1.24-.26.19-.46,0,0,0-.02,0-.02.17-.11.25-.26.18-.47,0,0,0-.02,0-.02.13-.03.06-.12.05-.21.03-.14.06-.27.08-.41.13-.07.14-.17.08-.29.06-.36.21-.67.47-.92.15.02.3.05.45.07.42.29.93.18,1.42.2,3.51,0,7.02,0,10.52,0,2.63-.09,5.31.18,7.91-.11.35.05.69.09,1.04.14h0c.06.04.08.09.08.16-.04.11-.02.2.11.23.26.91.52,1.83.78,2.74-.05.12-.03.22.09.28.36,1.51,1,2.95,1.34,4.47-.09.2,0,.35.14.49.08.23.16.45.23.68-.05.19-.03.37.15.49.04.21.09.41.13.62-.04.21.08.35.2.49.03.14.06.27.09.41-.09.19,0,.33.12.47,0,0,0,.02,0,.02-.07.27.04.47.22.65,0,0,0,.03,0,.03-.06.2.04.34.17.48.27,1.45.7,2.89,1.17,4.28Zm-24.74-23.06s.03.05.06.06c-.03-.01-.05-.03-.06-.06Zm17.85-.02s-.04.08-.07.11c.03-.03.06-.07.07-.11Zm-.85-3.84c0-.07-.04-.13-.09-.19.05.05.08.11.09.19Zm-.68-2c0-.06-.02-.11-.06-.14.04.04.06.08.06.14Zm-3.85-13.26s-.04-.07-.09-.1c.05.03.08.06.09.1Zm-.21-.91c0-.09-.04-.17-.1-.23.06.06.1.14.1.23Zm-6.63-.93s.02-.05.04-.06c-.02.01-.03.03-.04.06Zm-.19.38s-.03.08-.04.12c0-.04.02-.08.04-.12Zm-3.37,12.14c-.06.07-.09.15-.09.24,0-.09.02-.17.09-.24Zm-2.11,7.64h0c.18-.1.27-.24.2-.46.08-.74.54-2.29.83-3.02.14-1.3.85-2.48,1.01-3.78h0c.13-.13.24-.27.19-.48.03-.06.05-.13.06-.19.17-.12.24-.28.17-.49.29-1.06.53-2.14.96-3.15.27-.26.24-.59.2-.92.52-2.37,1.33-4.68,1.83-7.04.13-.12.26-.25.21-.45v-.02c.1,0,.15-.13.1-.25.04-.22.08-.45.12-.67h0c.15-.2.31-.4.22-.67.08-.38.17-.75.25-1.13h0c.15-.2.27-.42.2-.69h.02c.05-.22.09-.43.14-.64h0c.12-.07.13-.17.07-.29.31-.8.62-1.72,1.33-2.24.06-.09.14-.15.22-.19-.09.04-.16.1-.22.19.27.03.51-.05.74-.19.32.06.64.13.97.19.48.42.81.92.88,1.57.05.05.09.1.12.16-.03-.05-.07-.11-.12-.16-.1.28,0,.5.19.7.42,1.58.59,3.21,1.18,4.75h0c-.05.21.08.33.21.45.04.22.07.44.11.65h0c-.08.13-.01.21.1.27.37,1.29.84,2.55,1.17,3.84-.08.21,0,.37.17.49.22.42.27.88.36,1.33-.08.13,0,.2.1.26.38,1.43.92,2.83,1.17,4.29-.08.28.05.48.23.66v.02h0c-.06.2,0,.36.17.48.15.5.27,1.01.34,1.53h0c-.05.14.02.22.13.28.09.3.18.59.27.89,0,0,.01.02.02.03,0,0-.01-.02-.02-.03-.08.27-.02.5.2.68v.02c-.04.2.05.34.21.46.22.94.48,1.86.83,2.76.11.28.19.56.03.86-5.52,0-11.04,0-16.56,0-.23,0-.46-.01-.63.17-.16.02-.31.05-.47.07.05.06.11.11.17.14-.06-.03-.12-.08-.17-.14l-.02-.09s0,0,0,0c0-.11-.08-.14-.18-.14h-.07c.01-.23.03-.46.04-.68h0s.01-.02.01-.02Zm16.82-3.6c0-.1-.03-.19-.07-.27.04.09.06.18.07.27Zm-7.01,10.19c2.94,0,5.89.02,8.83.03,0,0,0,0,0,0-2.94,0-5.89-.02-8.83-.03Z"/>
      <path class="cls-2" d="m145.46,114.31c.15-4.08-1.86-8.22-5.36-10.39-.1-.15-.21-.28-.41-.27-.1-.18-.26-.23-.45-.23-.1-.18-.26-.23-.45-.23-.1-.18-.26-.23-.46-.22-.11-.17-.25-.26-.45-.23-.13-.17-.32-.21-.52-.19,0,0-.04-.04-.04-.04l-.06.02c-.14-.17-.31-.26-.53-.23-.31-.3-.76-.19-1.15-.21l.03-.03c-.17-.16-.38-.23-.61-.24-.89,0-1.78,0-2.67,0-.3,0-.59.05-.84.24-.38.05-.89-.15-1.15.21-.27-.05-.48.07-.66.26-.28-.04-.53.03-.74.23.07.01.14.02.21.02-.07,0-.14,0-.21-.02-2.52.93-4.52,2.77-5.6,5.24-.37.73-.75,1.47-.82,2.31-.26.91-.46,1.43-.4,2.42-.14.13-.14.14.02.26,0,.44,0,.88,0,1.33-.16.13-.16.14-.01.27-.07.74.3,1.38.47,2.07.03.43.2.8.39,1.17,1.22,2.66,3.1,4.98,5.79,6.23.13.15.27.27.49.23.21.18.42.33.72.27.42.14.84.28,1.26.43.38.15.77.29,1.19.23l-.03.02c.99,0,1.98,0,2.97,0,0,0-.03-.02-.03-.02.48.06.94-.02,1.38-.21.34.08.64-.03.91-.24,0,0,0,.03,0,.03.33.02.66.03.91-.25.24.05.38-.09.52-.25,2.65-1.23,4.74-3.28,5.62-6.11.13-.13.25-.26.19-.46,0,0,.01-.03.01-.03.17-.19.29-.4.19-.66h0c.04-.28.09-.57.13-.85h0c.19-.13.2-.31.13-.51.04-.36.07-.73.11-1.09.16-.12.16-.14.02-.27h0Zm-5.52.37c-.01.41-.11.82-.16,1.23h0c-.16.14-.16.31-.08.49.05-.07.1-.15.12-.23-.02.08-.06.16-.12.23.05,1.32-.67,2.52-1.15,3.71-.66,1.54-1.88,2.58-3.36,3.3-.12.07-.23.12-.35.16.12-.04.24-.09.35-.16-.51-.04-1.01-.02-1.48.24h-.1c-.2.02-.39.02-.58,0,.19.03.38.03.58,0-.38-.27-.81-.28-1.26-.23-2.66-1.32-4.15-4.15-4.58-7,.1-.2,0-.35-.12-.5-.21-2.59-.13-5.22.78-7.68.11,0,.15-.1.11-.26.77-1.67,1.91-3.25,3.58-4.09.1-.13.21-.21.34-.25-.13.03-.24.11-.33.25.28.03.51-.11.75-.24.7,0,1.41.05,2.11,0,2.91,1.16,4.43,4.28,4.75,7.24-.09.27-.06.52.14.73.14,1.01.1,2.03.07,3.05Zm-5.85,8.99c.17,0,.34-.02.51-.05-.17.03-.34.05-.51.05Z"/>
      <path class="cls-2" d="m311.97,123.95c-1.96-3.19-3.63-6.53-5.53-9.76-.06-.11.04-.34.16-.38,1.96-.45,3.89-1.73,4.36-3.81.14-.14.25-.29.13-.5,0-.12.02-.23.03-.35.1-.12.09-.22-.03-.31-.02-.51-.03-1.02-.05-1.53-.02-.09-.04-.17-.06-.26-.55-2.1-2.16-3.74-4.26-4.31-.38-.01-.77-.02-1.15-.04.38.01.77.02,1.15.04-.32-.33-.81-.18-1.22-.2-3.49-.11-6.99,0-10.48-.02-.14-.04-.26-.03-.38.05-.17,0-.2.03-.16.21,0,.13-.02.26-.03.39.01.1.02.19.03.29,0,5.69,0,11.38,0,17.06,0,1.2-.03,2.41-.04,3.61,0,.16.05.29.15.41.06.15.18.25.34.25,1.28,0,2.56-.01,3.85-.02.48,0,.42-.54.5-.88h0c.15-.14.14-.16-.02-.27-.04-6.41-.08-12.84.01-19.25l.09.02s.08-.05.08-.05c1.27,0,2.54,0,3.81,0,.12.21.32.24.53.21.47.06,1.02.54,1.41.83.71.59,1.07,1.38,1.15,2.31-.1.19,0,.34.1.48,0,.22-.02.45-.03.67-.02.09-.04.18-.05.27-.02.28-.05.57-.08.85.03.03.05.06.06.09,0-.03-.03-.07-.06-.09-.1,0-.12.15-.04.28.03.48-.18.87-.42,1.26-.56,1.02-1.44,1.58-2.55,1.89-.54,0-1.08.01-1.61.02-.14,0-.15.12-.18.22,0,.11-.04.25.01.32,1.93,3.43,3.47,7.12,5.37,10.55.1.19.27.25.47.25,1.54,0,3.08-.01,4.63-.02.22-.12.28-.18.24-.3-.06-.18-.12-.36-.21-.52Z"/>
      <path class="cls-2" d="m276.91,123.62c.05-.2-.02-.36-.2-.46-.09-.55-.23-1.08-.49-1.57.07-.11-.03-.18-.09-.27-.04-.22-.08-.44-.12-.66.05-.2-.01-.36-.2-.46-.02-.06-.04-.13-.05-.2.05-.27.05-.52-.18-.71-.12-.43-.24-.87-.36-1.3.07-.13,0-.22-.11-.28-.61-2.19-1.17-4.39-1.88-6.54.1-.28-.02-.49-.21-.67-.2-.45-.24-.94-.44-1.39.06-.21-.05-.35-.2-.47-.04-.21-.08-.43-.12-.64.08-.13,0-.21-.11-.28-.16-.52-.33-1.05-.49-1.57.06-.21-.03-.36-.19-.48-.38-1.43-1.01-3.12-2.55-3.58h0c-.93-.38-2.03-.4-2.93-.01-1.33.18-2.17,1.48-2.51,2.69-.15.12-.26.25-.21.46-.13.47-.25.95-.44,1.4-.12.02-.07.12-.06.2-.2,1.15-.63,2.23-.93,3.35-.13.07-.17.17-.09.3-.03.14-.05.28-.08.41-.18.19-.31.4-.23.67-.01.07-.03.14-.04.21-.18.13-.22.3-.15.5-.01.07-.03.14-.04.2-.14.12-.26.24-.21.45,0,0,0,.03,0,.03-.14.13-.25.27-.13.47-.29,1.35-.73,2.68-1.03,4.04-.09,0-.14.14-.08.26-.05.22-.09.44-.14.66-.19.18-.31.39-.23.67,0,0,0,.02,0,.02-.28.26-.26.58-.21.91-.26.59-.26,1.22-.45,1.83-.19.18-.32.38-.24.66,0,0,0,.01,0,.01-.2.2-.27.43-.18.71-.01.07-.02.14-.04.2-.14.11-.27.24-.22.45,0,0-.01.02-.01.02h0c-.27.31-.28.34-.09.7.28.42,1.29.15,1.81.21.16,0,.26-.13.32-.27.42-.53.3-1.27.67-1.83.12-.02.06-.1.06-.18.05-.29.1-.58.15-.87.02-.08.04-.17.05-.25.15-.53.3-1.07.45-1.6.12-.14.23-.28.14-.48.04-.21.08-.42.12-.63.1-.07.17-.15.12-.28.1-.26.28-.41.55-.46,2.55.11,5.13.07,7.68.02.43.51.58,1.19.74,1.82-.05.38.11.69.35.97h0c.04.21.07.41.11.62h0c-.07.21.04.35.19.47,0,0,0,.01,0,.01-.05.33.03.62.24.88.07.23.15.46.22.69-.06.2-.02.36.14.5.04.2.08.4.13.6.08.13.18.24.34.26,1.34.07,2.69.02,4.03.04.22,0,.48,0,.57-.23.06-.34.09-.67-.2-.94,0,0,0-.02,0-.02Zm-9.2-14.87s-.03-.04-.05-.06c.02.02.04.04.05.06Zm-2.65-1.96s0,.08,0,.13c0-.04,0-.09,0-.13Zm-2.43,8.63c.17-.76.37-1.51.65-2.23h0c.23-.26.28-.56.23-.89v-.02s0,0,0,0c.16-.12.26-.26.19-.47-.09.07-.15.14-.18.23.03-.09.09-.17.18-.23.01-.07.03-.13.05-.2h0c.26-.25.24-.57.22-.89.27-.63.33-1.32.65-1.93-.03-.63.32-1.16.47-1.74h0c.12-.14.2-.3.1-.49.11-.45.14-1.01.54-1.32.07-.08.14-.14.2-.17-.06.04-.13.1-.2.17.25,0,.49,0,.73,0,.25.15.31.43.37.67.29.9.51,1.81.76,2.71h0c-.05.12-.04.22.1.26.11.84.56,1.58.63,2.43-.06.2.06.34.18.47.03.14.05.29.08.43.09.07.13.14.15.23-.02-.08-.06-.16-.15-.23-.1.2,0,.36.13.5.15.53.3,1.07.45,1.6h0c-.05.19-.03.35.15.46.06.29.13.57.03.86-.02.04-.03.07-.05.11.02-.03.04-.07.05-.11-2.19.03-4.37.05-6.56.02-.11-.05-.19-.14-.16-.25Zm14.17,9.15c.06,0,.13-.01.19-.02h0c-.06,0-.13.01-.19.02Z"/>
      <path class="cls-2" d="m200.79,102.75c-.04-.28-.3-.27-.53-.28-4.24.06-8.48.05-12.72.03-.73-.3-.64,1.22-.43,1.61.09.06.17.17.27.18,1.34.09,2.7.03,4.04.06l.06.05.08-.02c.02.27.03.55.05.82-.14.15-.14.16.02.3-.04,6.04-.03,12.07,0,18.11-.19.15-.21.33-.06.52.05.13.09.26.14.4.06.21.23.28.43.28.9,0,1.79-.03,2.69-.03.41,0,.82.02,1.23.02.18,0,.25-.13.26-.29.16-6.68.07-13.42,0-20.11h.09s.08-.04.08-.04c1.24-.02,2.49.01,3.73-.04.14-.02.26-.12.39-.19-1.31,0-2.62-.02-3.93-.03,1.31,0,2.62.02,3.93.03.09-.14.19-.28.28-.42.13-.16.13-.18-.02-.32,0-.21.07-.44-.09-.63Zm-9.32,1.43h0s.09.08.13.12c-.04-.05-.08-.08-.13-.12Zm4.84.12s0-.05.02-.07c-.01.02-.02.04-.02.07Z"/>
      <path class="cls-2" d="m171.77,102.51c-3.89,0-7.78-.02-11.67-.03-.2,0-.38.03-.42.26-.06,7.24-.11,14.55.01,21.79.07.08.13.18.22.22,1.12.13,2.29.02,3.42.06.2,0,.37-.04.42-.26.05-.14.1-.29.15-.43.12-.15.11-.17-.04-.26-.15-3.01,0-6.03-.05-9.04.18-.19.13-.44.15-.67,0,0,.04-.06.04-.06,2.31.12,4.63.02,6.94.05.27,0,.52-.05.68-.28.12-.46.16-.91-.11-1.33-.17-.23-.42-.27-.69-.25-2.28,0-4.57,0-6.85,0-.14-.11-.17-.25-.16-.42.15-.13.15-.14,0-.27.05-2.48-.12-4.98.06-7.46.12,0,.15-.05.11-.19,0,0,0-.03,0-.03,2.69,0,5.38-.03,8.07,0,.16,0,.26-.12.29-.28.15-.48.2-1.27-.59-1.12Z"/>
      <path class="cls-2" d="m190.44,88.68c.17,0,.28-.09.33-.25.1-.34-.06-.63-.2-.92.04-.12.03-.22-.11-.27-.05-.21-.1-.41-.15-.62.07-.21-.02-.36-.19-.47-.14-.53-.31-1.06-.47-1.58.05-.26.02-.5-.2-.69,0,0,0-.01,0-.01.06-.27-.02-.49-.24-.66-.18-.35-.23-.73-.27-1.11.05-.15,0-.23-.15-.28-.03-.13-.06-.26-.1-.39.09-.21.02-.37-.15-.5,0,0,0-.01,0-.01.08-.45-.18-.79-.35-1.16-.02-.12-.05-.25-.07-.37.11-.09,0-.16-.06-.25-.35-1.05-.62-2.12-.93-3.17.05-.12.04-.22-.08-.3-.03-.12-.06-.25-.09-.37.1-.09,0-.15-.06-.22,0,0,0-.02,0-.02.06-.2-.01-.36-.18-.47,0,0,0-.02,0-.02.06-.27,0-.49-.22-.67-.01-.07-.03-.13-.04-.2.07-.21.01-.37-.18-.48,0,0,0-.02,0-.02-.05-.2-.1-.4-.15-.61.08-.12.02-.21-.08-.28-.01-.07-.03-.13-.04-.2.07-.21-.03-.36-.19-.48-.03-.14-.06-.27-.09-.41.07-.14.03-.23-.11-.3-.02-.07-.04-.13-.05-.2.06-.21-.02-.36-.2-.46,0,0,0-.03,0-.03.08-.08,0-.14-.06-.21-.06-.23-.11-.46-.17-.69.05-.2.02-.36-.19-.46-.03-.06-.05-.13-.06-.2.06-.33.01-.64-.23-.9,0,0,0-.01,0-.01-.02-.34-.18-.83-.37-1.18-.22-.97-.56-1.91-.81-2.87.05-.55-.13-1.15-.4-1.62-.28-.9-.63-1.78-.8-2.72.08-.13.01-.19-.1-.24,0,0,0-.02,0-.02.04-.2-.08-.34-.22-.46,0-.07,0-.14-.02-.21.07-.27.03-.51-.21-.69,0,0,0-.02,0-.02.05-.21-.01-.36-.21-.45-.02.1,0,.18.04.26-.04-.07-.06-.15-.04-.26-.03-.21-.07-.42-.1-.62.1-.21-.02-.35-.17-.47h0c-.37-.97-.6-1.98-.9-2.97.05-.21-.04-.35-.19-.47-.02-.14-.04-.28-.06-.42.08-.21.01-.37-.17-.48,0,0,0-.02,0-.02.06-.27-.04-.48-.23-.66-.03-.14-.05-.27-.08-.41.09-.2.01-.36-.14-.5,0,0,0-.01,0-.01.04-.26.05-.51-.19-.7-.03-.14-.05-.27-.08-.41.07-.21-.02-.36-.19-.47,0,0,0,0,0,0,.04-.19.03-.37-.14-.49-.03-.13-.06-.27-.09-.4.06-.27,0-.51-.21-.7,0-.07-.02-.13-.04-.2.08-.27,0-.5-.21-.68,0,0,0-.02,0-.02.02-.32-.05-.62-.23-.89-.52-1.52-1.04-3.04-1.45-4.59-.5-1.25-.83-2.55-1.3-3.81.06-.21-.02-.35-.19-.47,0,0,0-.02,0-.02.05-.2,0-.36-.19-.46-.09-.22-.19-.44-.28-.65.05-.21-.04-.35-.21-.45,0,0,0-.02,0-.02.05-.21-.04-.34-.23-.43-1.03-1.83-2.49-3.35-4.49-4.09-.22-.26-.49-.31-.81-.23-.34-.07-.68-.15-1.02-.22-1.12-.51-2.45-.16-3.65-.24-.33,0-.67.04-.96.23-.34-.07-.63.05-.91.23-.27-.05-.53-.07-.71.19-.26-.03-.5,0-.67.24-.2-.03-.38-.02-.47.21-.2-.01-.37.03-.45.23-.23-.03-.37.09-.48.28-1.09.7-1.89,1.71-2.68,2.73-.18.07-.28.19-.25.4,0,0-.02.04-.02.04-.25.15-.39.37-.42.66,0,0-.02.03-.02.03-.2.06-.27.21-.23.4,0,0-.01.03-.01.03-.14.04-.2.13-.14.28-.03.13-.07.26-.1.4-.2.1-.24.26-.18.46,0,.07-.03.15-.06.21-.2.09-.23.25-.18.45,0,0,0,.03,0,.03-.19.1-.25.25-.2.46.03-.03.07-.06.1-.09-.03.03-.06.06-.1.09-.04.14-.08.28-.12.43.01.03.02.06.02.09,0-.03,0-.06-.02-.09-.1,0-.14.11-.1.27-.67,2.49-1.51,4.94-2.08,7.45-.48,1.34-.86,2.71-1.16,4.1-.18.13-.21.3-.15.5-.02.07-.03.13-.05.2-.22.18-.28.41-.21.69,0,0,0,0,0,0-.22.27-.26.58-.21.92-.09.37-.18.74-.27,1.11-.17.12-.24.28-.18.48-.02.07-.03.13-.04.2-.16.13-.24.29-.15.5-.03.21-.06.42-.09.63-.2.1-.24.27-.19.47-.02.07-.03.13-.05.2-.14.07-.18.17-.09.3.07-.03.1-.08.12-.13-.02.05-.05.09-.12.13-.02.14-.05.28-.07.42-.16.2-.29.41-.21.68-.02.06-.04.13-.05.2-.17.13-.23.29-.15.5h0c-.03.14-.05.27-.08.41-.17.11-.25.26-.2.47,0,0,0,.01,0,.01-.11.05-.18.18-.06.27-.04.21-.08.41-.12.62-.02.07-.04.15-.06.22.01,0,.03-.02.05-.02-.02,0-.04.02-.05.02,0,0,0,.02,0,.02-.17.11-.25.26-.19.46,0,0,0,.02,0,.02-.18.19-.29.41-.19.68.11-.09.17-.2.2-.31-.03.11-.09.22-.2.31-.03.14-.05.27-.08.41-.19.1-.26.25-.21.46h0c-.32,1.45-.84,2.85-1.15,4.31-.18.13-.23.29-.15.5.05-.03.08-.07.11-.1-.03.04-.06.07-.11.1-.28.97-.46,1.96-.74,2.92-.24.26-.25.58-.23.9-.09.3-.17.6-.26.89-.19.13-.21.3-.14.5-.21.49-.31,1.02-.38,1.55-.11,0-.15.11-.1.27-.11.36-.22.72-.34,1.08-.19.11-.2.28-.15.47,0,0,0,.02,0,.02-.23.17-.3.39-.23.66,0,0,0,.01,0,.01q-.15.13-.04.26c-.03.13-.05.26-.08.39-.1,0-.13.12-.08.27-.6,1.56-.88,3.17-1.38,4.76-.14.14-.24.29-.13.49-.02.14-.04.27-.06.41h0c-.02.07-.03.15-.05.22h0s0,.01,0,.01c-.17.12-.25.27-.18.47-.4,1.5-.66,3.11-1.3,4.52-.09.14-.06.29-.04.43h0c.08.08.14.2.23.22,1.48.11,2.99.01,4.48.04.31-.02.75.11.89-.26.02-.06.04-.12.06-.18.18-.11.23-.28.17-.48,0,0,0-.02,0-.02.16-.18.31-.38.24-.65,0,0,0,0,0,0,.15-.11.15-.12.06-.25.03-.13.06-.27.09-.4.09,0,.12-.13.05-.27,0,0,0-.01,0-.01.17-.18.32-.37.25-.65,0,0,0-.01,0-.01.21-.19.28-.43.19-.7.02-.14.05-.27.07-.41.23-.18.27-.42.2-.69,0,0,0-.01,0-.01.2-.2.28-.43.19-.7,0-.07.02-.14.03-.2.13-.14.25-.29.15-.5.03-.21.07-.41.1-.62.22-.07.15-.31.16-.49,0,0,0-.02,0-.02.13-.13.22-.27.14-.47.06-.28.13-.57.19-.85.2-.1.22-.26.16-.44.04-.23.07-.46.11-.69.1,0,.14-.11.08-.25,0,0,0,0,0,0,.21-.17.33-.37.25-.64,0,0-.01-.03-.01-.03.19-.2.3-.42.19-.69.02-.14.04-.28.06-.42.16-.12.26-.26.19-.47.02-.07.03-.13.05-.2.11-.08.16-.18.05-.3.03-.12.06-.24.08-.37,0-.03,0-.06-.01-.09,0,.03,0,.06.01.09.02-.08.04-.16.06-.24,0,0,0-.02,0-.02.11-.06.18-.14.11-.27.03-.14.07-.28.1-.42.16-.2.28-.41.21-.69.02-.06.04-.13.05-.19.12-.05.18-.14.14-.28.05-.28.09-.55.14-.83.2-.29.35-.59.36-.95,0,0-.01-.06-.01-.06.06-.07.12-.13.18-.2,0,0,.07-.03.07-.03.14.02.28.05.43.07.39.28.85.19,1.3.2,2.72,0,5.43,0,8.15,0,3.46-.09,6.97.18,10.4-.1.35,0,.7.02,1.04.12.05.05.08.11.08.18-.04.12-.01.2.12.23.04.14.08.29.12.44-.09.21,0,.36.16.5.02.06.03.13.05.2-.07.21.04.35.18.49.02.21.05.42.07.64-.08.21.05.35.18.48,0,0,0,.01,0,.01-.04.49.12,1,.45,1.35.26.68.41,1.43.66,2.13.16.66.52,1.24.54,1.93-.06.2.06.33.19.46,0,0,0,.02,0,.02-.06.2-.02.37.16.49.02.14.05.27.07.41-.07.21.03.35.19.48.02.07.03.13.05.2-.05.13-.01.23.12.29.03.21.06.42.09.63-.07.21.01.36.19.47,0,0,0,.03,0,.03-.03.31-.01.62.16.89,0,.08,0,.17.1.19,0,0,0,.02,0,.02-.07.21.03.35.19.47.02.07.03.13.05.2-.06.2-.04.38.15.5.02.14.05.27.07.41-.07.21.01.36.18.49.03.21.07.42.1.63-.08.21.03.35.16.48.08.22.16.45.23.67.14.2.32.29.56.26,3.93,0,7.86-.04,11.79,0Zm-37.1-23.33s.04.07.09.07c-.05,0-.07-.03-.09-.07Zm17.18-3.24s0-.02-.01-.02c0,0,0,.01.01.02Zm-5.17-17.45s-.04-.07-.08-.09c.04.03.07.06.08.09Zm-1.33-5.47c0-.07-.03-.14-.07-.19.05.05.07.12.07.19Zm-4.07,1.47s0-.06,0-.08c0,.02-.01.05,0,.08Zm-1.37,5.26s-.06.07-.06.13c0-.06.02-.11.06-.13Zm-.23.46s-.02.08-.02.12c0-.04,0-.09.02-.12Zm-2.11,7.8c-.01.06-.02.12-.02.18,0-.06,0-.12.02-.18Zm-.34,1.24s0-.06.02-.08c-.01.02-.02.05-.02.08Zm-1.42,4.71c-.02.06-.03.12-.03.18,0-.06,0-.12.03-.18Zm-1.32,4.81c.03-.13.1-.25.15-.37h0c.31-.38.4-.69.35-1.17.09-.52.34-.99.4-1.52.19-.12.2-.29.15-.48.09-.3.18-.59.27-.89h0c.23-.19.24-.43.19-.7.37-1.44.92-2.83,1.24-4.29.11,0,.15-.1.11-.26.08-.23.15-.46.23-.69h0c.18-.2.28-.42.19-.7.35-1.34.72-2.68,1.09-4.02.1,0,.13-.13.07-.28.01-.07.03-.13.05-.2.18-.12.25-.28.17-.49.01-.78.51-1.44.54-2.22h0c.18-.11.21-.28.17-.47v-.02c.1,0,.16-.13.12-.25.03-.22.06-.44.09-.66h0c.15-.19.31-.38.25-.66.41-1.26.62-2.56.99-3.84h0c.13-.06.16-.17.1-.29.1-.29.19-.58.29-.87h0c.11-.06.18-.14.12-.28.03-.07.05-.14.06-.21.12-.12.26-.23.23-.43-.15.05-.23.15-.25.28.01-.13.09-.23.25-.28.55-1.09,2.06-1.27,2.76-.24-.04.2.08.32.23.41l.02.03c-.04.2.07.32.21.44v.02c-.05.12-.03.22.1.28.03.14.06.27.09.41l-.04-.02c.01.09.02.18.03.27,0,0,.05-.03.05-.03h0c.02.14.05.28.07.41.06.04.1.08.11.14-.01-.05-.05-.1-.11-.14-.08.13-.05.23.07.31l.07.64c.09.1.16.21.2.32-.04-.12-.11-.22-.2-.32-.08.28,0,.5.2.7.01.07.03.14.04.2-.08.28.01.5.2.7l.35,1.32s0,0,0,0c-.07.13,0,.21.09.28.24.68.47,1.35.71,2.03-.08.11.02.18.07.27.19.92.53,1.81.81,2.71h0l.05.23c.03.12.06.25.09.37-.08.13-.02.22.08.29.32.73.35,1.54.72,2.26h0c-.05.12-.04.22.08.29.03.12.05.24.08.37-.1.09,0,.16.05.25.29,1.14.67,2.25.93,3.4,0,0,0,0,0,0,0,0,0,0,0,0-.08.27.03.49.21.69.17.78.4,1.53.71,2.27-.06.11-.05.21.05.3.05.21.11.41.16.62.12.08.19.19.22.3-.03-.11-.1-.21-.22-.3-.06.27.06.48.22.67.01.07.03.14.05.21h0c-.06.14-.01.23.11.29.24.75.48,1.51.71,2.26.06.22.09.45-.04.66-5.41.02-10.82,0-16.23,0-.34,0-.69-.06-.97.17-.16.02-.31.05-.47.07l-.02-.09s0,0,0,0c-.01-.11-.08-.15-.18-.14-.15-.06-.2-.19-.17-.32Zm.22-.75s-.02.1-.03.14c0-.05.02-.1.03-.14Zm11.89,6.98c1.93,0,5.27,0,6.49.01-2.16,0-4.33-.01-6.49-.01Zm11.68,13.18c-.02-.16-.01-.32-.04-.47.03.15.02.32.04.47.02.03.03.07.03.1,0-.03-.01-.07-.03-.1Z"/>
      <path class="cls-2" d="m344.54,123c-3.1-.12-6.21-.05-9.32-.03-.36-.25-.68-.52-.84-.95.08-.09-.01-.13-.07-.2-.24-1.02-.05-2.11-.1-3.15.16-.12.16-.13.02-.27,0-.44,0-.88,0-1.32.14-.14.14-.16-.02-.27.07-.73-.2-1.6.12-2.25,0-.03,0-.06,0-.09,0,.03,0,.06,0,.09,2.33,0,4.65,0,6.98,0,.36-.02.8.09,1.05-.23.4-.57.08-1.35.12-2.01h0c-.13-.28-.37-.31-.65-.29-2.49,0-4.99,0-7.48.01.04.07.07.16.14.2-.07-.04-.11-.13-.14-.2-.18-.27-.17-.57-.17-.87.03-2.04-.06-4.09.04-6.13.13-.05.15-.15.11-.27.05-.2.15-.36.35-.44,2.76,0,5.52,0,8.28,0,.4-.04.89.11,1.18-.22.04,0,.09-.21.07-.3.08-.35.14-.69.01-1.04.06-.13.01-.19-.12-.2-.19-.12-.4-.13-.61-.05-3.57-.06-7.15,0-10.73,0-.42.02-.85-.06-1.2.22.09.01.19.02.28.02-.09,0-.19,0-.28-.02-.82.39-1.69,1.04-1.77,2.02-.11.04-.06.14-.05.22-.35,1.97-.06,4.07-.16,6.09.03,3.58-.03,7.16.05,10.74h0c-.1.33-.07.62.18.88.18.94.98,1.43,1.77,1.82,1.18.45,2.47.19,3.7.25,1.81,0,3.62.01,5.43.02,1.28-.03,2.57.08,3.84-.03.13-.02.16-.14.2-.24.09-.44.14-.87-.02-1.31-.07-.08-.14-.21-.22-.22Zm-.61-18.92h0c-2.65,0-5.3,0-7.95,0,2.65,0,5.3,0,7.95,0Zm-10.11-1.33c-.38,0-.75-.04-1.13-.06,0,0,0,0,0,0,.38.02.75.06,1.13.06Z"/>
      <path class="cls-2" d="m132.89,125.46c.79-.09,1.81.26,2.48-.22-.99,0-1.98,0-2.97,0,.14.13.3.22.49.22Z"/>
      <path class="cls-2" d="m294.15,84.57c-.19.19-.31.4-.23.67.17-.2.31-.4.23-.67Z"/>
      <path class="cls-2" d="m106.53,117.05c-.64-2.66-2.81-4.32-5.17-5.43-1.69-1.04-4-1.7-4.87-3.63.05-.13.03-.23-.1-.29,0-.43,0-.86,0-1.29.13-.06.16-.16.1-.29.32-1.06,1.29-1.51,2.29-1.77,1.76,0,3.52,0,5.28,0,.21-.03.43-.05.64-.08q.19,0,.15-.18c.09-.4.11-.78-.13-1.14h0c.03-.15-.07-.19-.18-.24-.75-.45-1.76-.08-2.6-.17-1.18-.03-2.37-.1-3.55.02-.47.05-1.01-.13-1.41.17-.27-.06-.49.04-.68.23-.3-.07-.53.03-.72.26-1.37.63-2.53,1.54-3.12,2.97-.28.24-.27.56-.23.88-.31.8-.43,1.63-.26,2.48-.1.08,0,.14.05.22.07.16.14.32.21.48-.05.26-.02.5.2.69,0,0,0,.01,0,.01-.05.21.07.33.24.42,1.99,3.44,6.69,3.65,8.89,6.81-.03.14.04.22.17.27.04.13.08.26.12.39-.1.2.02.36.13.5.03-.1.04-.19.02-.28.02.08,0,.18-.02.28,0,.3-.02.59-.03.89-.1.07-.16.16-.09.28-.16.95-1.01,1.65-1.85,2.01-.22-.04-.42-.02-.55.2-2.02.37-4.08.14-6.1,0-.22-.21-.73-.29-.86.07.03.44-.18.94.14,1.29.2.27.48.29.78.23.26.08.52.15.78.23.85.01,1.69.03,2.54.04-.85-.01-1.69-.03-2.54-.04.78.42,1.73.13,2.58.2,1.05.08,2.09.03,3.14.03.4.03.8.05,1.2-.05-.02-.05-.04-.09-.05-.14-.36,0-.72.01-1.08.02-.54-.03-1.08-.05-1.62-.05.54,0,1.08.01,1.62.05.36,0,.72-.01,1.08-.02.01.05.03.1.05.14.06-.05.13-.1.19-.15.28.08.51,0,.69-.24,0,0-.03-.02-.03-.02.36.08.66-.04.93-.26,1.6-.68,2.95-1.74,3.43-3.56.16-.12.23-.28.17-.49.02-.06.04-.13.05-.2.1-.08.16-.17.07-.29.01-.58.03-1.15.04-1.73.15-.27.07-.51-.12-.73Zm-7.07,5.67s-.09.08-.13.12c.05-.04.1-.07.13-.12h0Z"/>
      <path class="cls-1" d="m391.74,19.78l.03-.37c.11-.18.12-.36,0-.53-.02-.13-.04-.25-.06-.38h0c.1-.12.05-.21-.05-.29-.09-.44-.19-.89-.28-1.33.07-.21-.03-.36-.19-.48-.01-.07-.03-.13-.05-.2.06-.21-.01-.36-.19-.47,0,0,0-.02,0-.02.05-.21-.05-.34-.23-.43-.91-1.62-2.33-3.16-4.07-3.85-.13-.07-.25-.18-.39-.21-.84-.08-1.79-.22-2.55.22,0,0-.01,0-.01,0-.16-.02-.28.05-.36.19-3,1.04-5.06,3.53-7.19,5.73-1.96,1.77-3.58,3.91-5.7,5.52-1.04.92-1.99,1.98-3.13,2.79,0,0,0,0,0,0-.46.06-.93.07-1.39.02h0c-.15-.15-.29-.3-.43-.44.04-.2-.07-.33-.22-.43,0,0,0-.02,0-.02.05-.2-.02-.36-.19-.47-.11-.88-.22-1.76-.13-2.65.12-.18.12-.19-.03-.33,0-.94,0-1.88.01-2.82.1-.1.11-.21.03-.33.02-.75.03-1.5.05-2.24,0-.08,0-.17,0-.25.05-.75.09-1.49.14-2.24.13-.06.15-.16.09-.29.02-.51.03-1.03.05-1.54.12-.06.06-.17.05-.27.17-1.71.02-3.44.06-5.16.15-.27.03-.5-.12-.72-.05-.83-.26-1.63-.34-2.46.07-.13,0-.21-.11-.27-.62-1.37-1.89-2.21-3.33-2.52-.14-.14-.31-.21-.51-.21-1.13.1-2.38-.21-3.45.23,0,0,0-.02,0-.02-.42-.06-.82-.03-1.18.23-1.94.67-4.02,1.82-4.73,3.87-.2.19-.3.42-.2.69h0c.01.44.03.88.04,1.33-.09.27.04.48.18.69,0,0,0,.01,0,.01.01.09.03.17.04.26.03.13.06.26.09.39-.08.26.05.48.14.71-.01.12.04.2.15.25.02.07.03.13.05.2-.07.21.04.35.2.46,1.55,3.18,3.09,6.38,4.74,9.51,1.12,1.96,2.3,3.93,2.8,6.15.01.09.03.19.04.28,0,.28.07.57-.01.85-.02.08-.05.17-.07.25-.17.33-.36.65-.67.88-.46,0-.92,0-1.39,0-.13-.06-.25-.12-.38-.18-.27-.3-.63-.24-.97-.23-.18-.21-.4-.31-.67-.25-.2-.26-.47-.27-.75-.21-.64-.13-1.28-.26-1.9-.47-.23-.24-.53-.23-.83-.21h0c-.19-.07-.37-.15-.56-.22-.21-.24-.49-.29-.79-.25-.49-.22-.99-.44-1.48-.66-.22-.24-.5-.28-.79-.24-.18-.08-.36-.16-.54-.23-.12-.19-.29-.26-.51-.25-.09-.23-.27-.24-.47-.2-.12-.2-.31-.24-.53-.21-.34-.15-.67-.3-1.01-.45-.11-.2-.28-.28-.5-.25-.16-.27-.42-.27-.68-.23-.13-.19-.31-.25-.53-.21-.26-.08-.51-.16-.77-.24-.2-.25-.47-.27-.75-.23-.18-.25-.43-.26-.7-.21-.47-.28-1.05-.29-1.58-.24-.14-.16-.3-.22-.51-.16-.79-.12-1.59-.03-2.38-.03-.2,0-.35.12-.51.24,0,0-.02-.03-.02-.03-.29-.05-.56-.02-.76.22-.29.16-.57.31-.86.47-.14-.02-.21.03-.21.18,0,0-.04.04-.04.04q-.19,0-.19.19s-.04.04-.04.04c-.18,0-.19.02-.19.2,0,0-.02.03-.02.03-.21.06-.26.21-.23.41,0,0-.01.03-.01.03-.19.09-.24.24-.2.44,0,0-.01.02-.01.02-.19.09-.26.23-.21.44,0,0,0,.02,0,.02-.23.16-.28.39-.23.65,0,0,0,.02,0,.02-.18.11-.24.28-.18.48-.02.07-.03.13-.04.2-.15.14-.24.29-.15.5-.03.14-.05.27-.08.41-.15.14-.25.29-.14.5,0,.73.02,1.46.03,2.19-.1.12-.08.23.05.31.06.96.3,1.87.81,2.68.48.95,1.5,1.35,2.4,1.81.22.18.45.3.74.23.31.14.62.26.97.22,1.63.08,3.28.16,4.88-.22.38-.06.76-.12,1.13-.21.1-.1.2-.15.32-.19-.11.03-.22.09-.32.19.44.03.86.01,1.26-.2.36-.04.77.04,1.05-.24,0,0,.1,0,.1,0h.1c.64-.07,1.36.12,1.92-.23.26-.08.52-.16.78-.24.26-.2.56-.29.89-.27-.32-.01-.63.07-.89.27.43.08.81-.11,1.2-.23.55.09,1.1.12,1.59-.23.55.07,1.08,0,1.59-.23.48.07.92-.07,1.36-.22,1.82.08,2.58-.08,4.16.23.38.11.66.35.84.7,0,.3,0,.6,0,.89-2.19,4.11-5.56,7.44-8.54,10.96-1.22,1.92-3.2,3.43-3.98,5.59-.13.05-.18.14-.14.28-.04.06-.07.13-.06.21-.15.12-.24.27-.18.47-.1.92-.56,1.85-.03,2.71.5,1.84,2.15,3.06,3.8,3.86.08.11.17.2.32.19.11.15.24.26.45.23.19.16.39.31.67.25,0,0-.03.02-.03.02.18.24.42.29.69.22.26.26.58.27.92.23,0,0-.02.01-.02.01.09.06.17.17.26.18.58.04,1.33.24,1.79-.19h-.02c.36.05.7.03.98-.24,1.37-.52,2.33-1.64,2.89-2.96.43-.41.39-1.07.59-1.61.05-.28.09-.56.14-.84.26-.27.4-.58.36-.96.03-.29.05-.57.08-.86q.14-.16.04-.3l.14-.89c.11-.13.15-.27.08-.43.17-.51.11-1.05.17-1.58.11-.05.05-.14.04-.23.23-1.67.63-3.3.72-4.98.23-.19.22-.43.16-.69,0-.07,0-.15,0-.22.11-.05.06-.15.05-.25.17-.52.14-1.05.16-1.59.1-.14.21-.27.15-.46.03-.14.06-.29.09-.43.12-.14.2-.29.13-.48.11-.38.09-.79.3-1.14.1,0,.13-.11.07-.23.05-.22.1-.45.14-.67.37-.71.58-1.61,1.33-2.02.33,0,.67,0,1,.01,2.27,1.49,3.45,3.93,4.97,6.08,2.06,3.3,3.92,6.72,6.4,9.73.64.8,1.29,1.58,2.22,2.07.13.14.27.27.49.23.2.17.4.31.68.24,0,0-.03.02-.03.02.73.43,1.66.24,2.47.16.1-.01.19-.11.28-.16h0s-.03-.02-.03-.02c.27.06.49-.07.7-.21.27.06.47-.06.64-.27-.19,0-.37.02-.52.13.14-.11.33-.13.52-.13,0-.04.01-.07.03-.1-.01.03-.02.06-.03.1.14-.01.23-.09.26-.22,1.45-1.17,2.71-2.53,3.4-4.3.14-.11.26-.23.21-.43,0,0,.01-.03.01-.03.13-.12.23-.26.15-.45.03-.22.06-.44.09-.65.27-.58.36-1.18.25-1.81.07-.41-.15-1.09-.43-1.36,0,0-.01-.03-.01-.03-.01-.31-.2-.5-.46-.63-2.17-2.56-5.38-3.71-8.3-5.17-2.87-1.52-5.81-2.91-8.6-4.59-2.56-1.83-3.02-2.38-.2-4.33.3.07.51-.11.73-.27.29.07.5-.08.71-.24.12-.06.25-.12.37-.18.42,0,.82-.04,1.18-.27.08,0,.15,0,.23,0,.19.02.35-.05.48-.2.77.05,1.63-.05,2.28-.46,0,0-.03-.02-.03-.02.28.07.49-.08.7-.21.41.08.79.02,1.12-.24.6-.14,1.31-.05,1.8-.47,0,0,0,0,0,0,.2.03.34-.09.48-.2.34.07.63-.04.92-.21.34.07.61-.15.91-.23.34.09.64-.02.91-.22.27.05.47-.11.67-.25.33.06.63-.06.92-.2.34.08.61-.13.9-.25.28.07.48-.07.67-.24.21.03.36-.09.5-.23.52-.24,1.04-.48,1.56-.72.13.04.19-.03.22-.14,0,0,.05-.02.05-.02.19.04.28-.08.36-.23,0,0,.07-.05.07-.05.13.02.18-.05.2-.16,0,0,.04-.03.04-.03.19.03.27-.09.34-.23,0,0,.08-.07.08-.07.11.01.17-.04.17-.15,0,0,.06-.06.06-.06.11,0,.17-.06.17-.17,0,0,.06-.06.06-.06.11,0,.17-.06.17-.17,0,0,.06-.05.06-.05.12,0,.18-.05.17-.18,0,0,.04-.06.04-.06.15-.07.28-.17.25-.37,0,0,.01-.02.01-.02.12-.04.19-.11.16-.25.04-.13.09-.25.13-.38.19-.13.2-.3.14-.5,0,0,0,0,0,0,.13-.14.23-.29.11-.49Zm-54.86,14.34s0,0,0,0c.15-.03.3-.04.45-.02-.15-.01-.3-.01-.45.02Zm7.53-.44c.09-.01.18-.02.27-.03-.09,0-.18.02-.27.03Zm29.24-5.72h0c.02-.07.05-.11.1-.14-.04.03-.08.07-.1.14Z"/>
      <path class="cls-2" d="m85.71,42.28c-.04-.44-.07-.88-.11-1.31.08-.19.07-.36-.09-.5-.02-.21-.04-.41-.06-.62q.11-.13-.04-.27c-.02-.14-.04-.29-.07-.43.11-.35.14-.69-.12-.99-.03-.2-.07-.4-.1-.6.06-.2.01-.37-.16-.5-.05-.51-.11-1.03-.16-1.54,0-.42-.1-.8-.32-1.16h0c-.02-.14-.04-.29-.06-.43.06-.2.02-.37-.15-.5-.07-.52-.3-1.01-.3-1.54-1.21-4.5-3.24-8.73-5.64-12.73.03-.13,0-.23-.13-.27-.03-.06-.06-.13-.08-.2,0-.32-.2-.5-.46-.63,0,0-.03-.03-.03-.03,0-.14-.06-.2-.2-.21,0,0-.02-.02-.02-.02,0-.14-.06-.21-.2-.22-5.11-7.26-12.59-12.83-21.07-15.45-.18-.25-.43-.31-.72-.26-.18-.24-.44-.23-.7-.2-.25-.29-.57-.28-.9-.24-.26-.23-.58-.25-.9-.23-.2-.31-.6-.2-.91-.22-.34-.28-.74-.28-1.15-.23,0,0,.02-.02.02-.02-.29-.3-.75-.31-1.14-.21,0,0,0,0,0,0-.52-.32-1.64-.28-2.27-.22,0,0,0,.02,0,.02-.78-.37-1.73-.18-2.57-.26-2.16.12-4.44-.28-6.53.24-.45-.07-.9-.01-1.34.03-.41-.03-.83-.07-1.2.19-.36.07-.72.15-1.08.22-.49.04-1-.06-1.42.24h0c-.19.08-.38.16-.57.24-.37-.04-.71.05-1.04.23-.2.06-.4.13-.6.19-.32.05-.71-.05-.94.24-.23-.05-.41,0-.53.22,0,0-.07.02-.07.02-.28-.03-.52.08-.75.22-.24-.07-.39.04-.52.23C16.38,6.63,6.82,16.79,2.91,28.68c-.16.12-.27.26-.19.47-.02.07-.03.14-.04.21-.17.19-.31.39-.24.66,0,0,0,.01,0,.01-.11.07-.16.15-.08.28-.03.14-.06.28-.1.42-.17.2-.33.4-.24.68-.02.07-.03.13-.05.2-.19.12-.22.3-.15.5-.02.07-.03.13-.04.2-.18.19-.3.4-.23.67-.06.38-.13.77-.19,1.15-.16.2-.31.4-.24.69-.02.14-.04.28-.07.42-.26.27-.22.6-.18.93,0,0,0,0,0,0-.13.05-.06.16-.04.26-.03.13-.06.25-.09.38-.17.26-.33.71-.21,1,0,.27-.02.55-.02.82-.05.38-.11.75-.16,1.12-.23.29-.16.63-.15.95,0,0,0,0,0,0-.13.05-.05.15-.04.25H.15c-.04.43-.08.87-.12,1.3,0,.1.01.2.02.29-.05,2.17-.02,4.34,0,6.51-.1.12-.07.23.05.31.05.5.11,1,.16,1.51-.06.33.05.64.16.95.06-.15.07-.3.06-.45.02.15,0,.3-.06.45.01.14.03.28.04.42-.09.26-.12.52.08.76.04.28.08.57.12.85-.09.28.02.5.19.7.02.22.04.43.06.65-.11.28-.02.51.18.71.08.23.16.45.24.68-.04.09.02.17.05.26.02.13.03.26.05.39-.13.27-.07.5.12.71.08.23.16.46.23.69h0c-.07.27,0,.5.2.7,0,.07.02.14.04.2h0c.02.18-.02.4.18.48.02.07.03.13.04.2-.08.27-.04.51.18.7,0,0,0,.02,0,.02-.07.28.09.46.25.65.01.07.03.14.04.21-.08.21.03.35.17.48.16.45.31.91.47,1.36-.05.27.05.48.22.68,2.48,5.75,5.97,11.23,10.64,15.42,3.58,3.38,7.78,5.98,12.29,7.94.14.14.28.26.49.23.27.23.58.35.94.29.19.07.38.13.57.2.24.15.49.31.8.23.79.25,1.57.52,2.38.68.38.28.82.32,1.28.31.3,0,.57.22.88.15.48.12.94.27,1.44.27.2,0,.43.23.47.44.18,4.79,0,9.61.05,14.41.02,1.7-.05,3.41,0,5.1.02.06.06.15.11.17.18.05.37.04.5-.12.88-.77,1.84-1.46,2.72-2.22,2.65-2.14,5.33-4.22,8.02-6.31.8-.63,1.58-1.29,2.37-1.94.25-.2.36-.46.34-.79-.03-.87-.04-1.74-.06-2.61l.02-.26c.13-1.87-.17-3.8.11-5.64.67-.05,1.47-.03,2.01-.46,0,0-.03-.02-.03-.02.35.09.62-.11.92-.24.43.1.82.02,1.18-.24h0c.57-.15,1.13-.31,1.7-.46.31.06.57-.05.81-.21h0c1.51-.52,3.05-.99,4.44-1.79.29.03.51-.1.7-.29.2.02.33-.09.46-.23.2.03.34-.08.45-.23.15,0,.24-.08.3-.2,9.22-4.7,15.95-13.18,19.73-22.7.19-.18.31-.39.23-.67,0-.07.02-.14.05-.21.1,0,.15-.09.16-.26,0-.08,0-.16,0-.23.02-.06.04-.13.05-.2.17-.12.24-.27.19-.48.47-1.47.87-3,1.17-4.52.28-.35.22-.82.39-1.21.02-.05-.02-.14-.03-.2-.02-.69.13-1.36.29-2.03.12-.13.21-.27.13-.45.1-.29.07-.59.06-.88,0-.08.02-.16.03-.24.06-.44.11-.89.17-1.33.09,0,.11-.15.04-.28.02-.36.04-.73.06-1.09.09,0,.12-.17.06-.28.02-.13.05-.26.07-.39.06,0,.05-.17-.01-.29,0-1.79,0-3.58,0-5.37.1-.12.08-.23-.05-.31Zm-20.31-17.53s0-.05,0-.08c0,.02,0,.05,0,.08Zm-.37-1.46c-.03-.09-.07-.17-.12-.26.05.08.09.17.12.26Zm-.35-.98s-.02-.05-.04-.08c.02.02.03.05.04.08Zm-1.44-3.51s0-.01-.01-.02c0,0,0,.01.01.02Zm-15.35-12.6s0,0,0,0c.1,0,.19-.01.29-.01-.1,0-.19,0-.29.01Zm1.14.21h0c.07-.01.13-.02.2-.01-.06,0-.13,0-.2.01ZM37.32.49c-.12,0-.24,0-.36-.01,0,0-.02,0-.03,0,0,0,.02,0,.03,0,.12.01.24.01.36.01Zm-.93.05c-.1,0-.19,0-.29,0,.1,0,.19,0,.29,0Zm-14.85,20.58s-.02.08-.03.12c0-.04,0-.09.03-.12Zm-.36,1.05c-.07.06-.1.14-.11.22,0-.09.05-.16.11-.22Zm-1.35,3.93c-.07.1-.12.21-.12.33,0-.12.06-.23.12-.33Zm-.21,38.07s-.01.04,0,.06c0-.02,0-.03,0-.06Zm31,19.71s0,0,0,0c-.04.03-.08.07-.12.1.04-.03.08-.07.11-.1Zm13.83-14.72s.03-.08.03-.12c0,.04-.01.08-.03.12Zm.78-2.33s.05-.09.05-.15c0,.06-.01.12-.05.15Zm1.42-4.84s-.02.06-.04.08c.02-.02.03-.05.04-.08Zm1.23-7.49s.04-.08.04-.12c0,.04-.02.08-.04.12Zm.26-5.25c-.03.48-.06.97-.09,1.45-.17.13-.18.14-.03.29-.02.66.06,1.32-.06,1.98-.09,0-.11.15-.04.28-.01.29-.03.58-.04.87h0c-.11.14-.19.29-.1.48-.03,1.93-.54,3.77-.81,5.66-.25.26-.29.57-.22.91-.03.22-.07.43-.1.65-.14.05-.15.15-.1.28-.19.8-.37,1.61-.67,2.37.03.56-.28,1-.49,1.48-.02.09-.04.17-.06.26-.03.13-.05.26-.08.39-.1,0-.13.11-.08.26l-.46,1.37h0c-.19.18-.31.38-.24.66v.02c-.16.11-.26.25-.2.46-.08.23-.16.45-.24.68h0c-.14.13-.27.26-.19.47-.02.07-.03.13-.05.2h0c-.15.12-.25.26-.2.47-2.56,5.36-6.58,10.29-12.24,12.47-.1.1-.21.17-.33.21.12-.04.23-.11.33-.21-.27,0-.55-.03-.73.24-.22,0-.44,0-.65,0l-.1-.42c0-.09.01-.17.02-.26,0-.29,0-.58,0-.88l-.02-.26c-.03-2.64.09-5.3-.01-7.92h0c.06-.14,0-.21-.14-.24-2.26-2.26-4.44-4.62-6.6-6.98-.17-.18-.48-.2-.59,0-.73,1.17-1.79,2.04-2.74,3-1.32,1.36-2.51,2.82-3.89,4.13-.09,3.09,0,6.18-.03,9.27,0,.15-.01.3-.04.45-.07.26-.39.16-.58.13-.15.02-.29,0-.42-.04.13.05.27.06.42.04-.21-.25-.48-.29-.78-.26-6.71-2.54-11.11-8.82-13.4-15.4.07-.2.02-.37-.17-.48v-.02h0c.04-.2,0-.35-.21-.44v-.03c.02-.19,0-.35-.18-.46-.02-.15-.04-.29-.07-.44h0c.06-.21-.02-.35-.21-.44-.16-.52-.33-1.05-.49-1.57h0c-.05-.21-.1-.43-.15-.64.11-.1,0-.18-.05-.28,0-.07-.02-.14-.04-.2.08-.28-.04-.49-.21-.69-.04-.22-.07-.44-.11-.67.09-.19,0-.34-.11-.48-.08-.37-.17-.74-.25-1.12.09-.11-.01-.18-.07-.27-.06-.51-.12-1.03-.17-1.54.08-.27,0-.51-.17-.72-.04-.51-.09-1.02-.13-1.53.09-.13.06-.22-.07-.3-.03-.21-.06-.42-.09-.62.07-.2.05-.38-.13-.52-.04-.81-.09-1.63-.13-2.44.02-.07.03-.15.05-.22.04-.12.03-.22-.11-.27-.11-1.19-.09-2.39-.15-3.59h0c-.01-.1-.02-.19-.03-.29,0-.2,0-.41,0-.61.06,0,.06-.17,0-.3,0-2.4,0-4.8.14-7.2.15-.15.15-.16.03-.31,0-.12,0-.24.01-.36,0,0,0,0,0,0,.12-.09.13-.2.04-.31.05-.81.09-1.63.14-2.44.24-.28.22-.61.18-.94.03-.21.06-.42.09-.63h0c.13-.08.16-.18.08-.31.02-.21.04-.43.07-.64.12-.19.12-.24.02-.46.01-.14.02-.29.03-.43h0c.19-.2.25-.44.18-.71.04-.44.09-.89.13-1.33.12-.07.14-.17.07-.29l.26-1.11h0c.12-.14.21-.29.11-.48.03-.22.07-.45.1-.67h0c.14-.2.3-.39.23-.67h.01s0,0,0,0c.13-.04.06-.14.04-.23.02-.13.04-.27.06-.4.17-.13.18-.31.12-.49h0s0-.01,0-.01c.19-.19.32-.39.23-.67.27-1.17.7-2.29,1.14-3.41h0c.13-.12.27-.24.21-.45.02-.06.04-.13.06-.19h0c.12-.06.18-.15.11-.29.03-.07.05-.14.06-.21.13-.13.26-.25.2-.45.33-.75.65-1.49.98-2.24h0c.31-.22.44-.53.43-.91,2.83-5.27,7.49-9.77,13.37-11.34.06-.04.12-.1.19-.11-.07.01-.13.07-.19.11.92.05,1.8-.26,2.72-.31.1,0,.19-.1.28-.15l-.03-.02c.56.07,1.1.02,1.61-.23l.02-.02c1.19,0,2.39,0,3.58,0l.02.02c.14-.01.27-.02.41-.02-.14,0-.27,0-.41.02.42.27.9.24,1.37.28.58.25,1.2.21,1.81.19.33.27.74.21,1.14.21.2.22.45.3.74.24.43.12.88.19,1.28.41.15-.02.29-.02.42.02-.13-.04-.27-.04-.42-.02.23.17.47.3.77.26,5.08,2.24,8.74,6.55,11.29,11.37-.04.2.06.34.22.44v.02c.03.42.23.78.47,1.11.15.38.3.77.44,1.15-.07.27.07.47.25.65v.02c-.07.27.06.47.23.66.01-.07.02-.13.02-.19,0,.06,0,.12-.02.19v.02s0,0,0,0c.04.42.12.82.43,1.14l.14.63h0c-.09.12-.03.21.07.29.02.06.04.13.06.19h0c0,.3.12.55.35.74.04.46.14.9.34,1.31h0c-.05.13-.02.23.11.3.02.14.05.27.07.41-.07.33.04.62.24.88v.02h0c0,.08,0,.15-.01.23-.02.12,0,.22.14.26.07.54.05,1.09.28,1.59-.08.07,0,.12.05.19.19.51.14,1.06.21,1.59-.09.28,0,.51.19.7.02.07.03.13.04.2-.07.2-.03.37.15.5.05.74.1,1.47.15,2.21.03.02.06.04.08.06-.02-.02-.04-.04-.08-.06-.08.13-.05.23.08.3.03.36.07.71.1,1.07-.07.15-.05.31-.02.47-.03.11-.03.21.1.27,0-.01,0-.03.01-.04v.04c0,1.5.1,2.99.19,4.49-.07.19.02.34.13.48,0,1.51,0,3.01-.01,4.52-.14.14-.21.29-.14.49-.01.33-.03.67-.04,1ZM22.76,18.38s-.02.09-.03.14c0-.05.02-.09.03-.14Z"/>
      <path class="cls-2" d="m244.69,102.51s-.08-.02-.08-.02c-.4-.26-1.21-.02-1.72-.06-.27.03-.67-.01-.7.35-.04.28-.09.56-.13.83-.2.12-.21.29-.15.49-.01.07-.02.14-.03.21-.21.2-.24.44-.18.71-.08.22-.16.45-.24.67-.14.13-.24.28-.15.49-.1.37-.2.75-.29,1.12-.12.14-.23.28-.14.47-.24.83-.44,1.67-.79,2.46-.23.2-.24.45-.14.72.05-.05.09-.11.12-.16-.03.06-.06.11-.12.16-.75,2.22-1.39,4.48-1.91,6.77-.19.2-.27.43-.19.7-.08.23-.15.46-.23.69-.09,0-.12.13-.06.24-.06.29-.13.58-.2.87.01.05.02.1,0,.14,0-.04,0-.09,0-.14-.17.1-.27.24-.22.45-.02.07-.04.13-.05.2-.13.07-.17.16-.1.3-.08.39-.48.94-.92.72-.27-.17-.45-.4-.49-.71-.09-.71-.32-1.38-.48-2.07.06-.2.04-.37-.14-.5-.03-.14-.05-.27-.08-.41.06-.21-.02-.35-.2-.46,0,0,0-.02,0-.02.05-.2-.03-.35-.2-.46-.05-.72-.19-.79-.4-1.39-.42-1.73-1.15-3.4-1.56-5.14.07-.13,0-.21-.11-.27-.31-1.05-.62-2.11-.93-3.16.08-.1-.02-.18-.07-.27-.03-.13-.06-.26-.09-.39.1-.13.1-.14-.05-.26,0,0,0-.01,0-.01.07-.27.02-.5-.21-.68-.02-.07-.04-.13-.05-.2.06-.2,0-.36-.17-.49-.2-.77-.37-1.55-.73-2.26-.11-.26-.26-.31-.65-.23-1.45.03-2.93-.12-4.37.01-.39.11-.18.7.03.91.46,1.91,1.19,3.75,1.69,5.64-.07.14,0,.22.12.28.17.52.33,1.04.5,1.56-.06.21.05.35.19.47.03.14.05.28.08.41-.05.38.07.7.35.97.03.14.05.27.08.41,0,.32.01.64.02.96-.04.28-.09.56-.13.84-.14.04-.17.14-.14.27-.18.34-.21.73-.28,1.1-.13.05-.19.14-.15.28-.03.06-.05.12-.06.19-.17.13-.24.29-.16.49-.02.14-.05.27-.07.41-.22.19-.35.42-.31.72-.05.22-.09.44-.14.66-.15.12-.26.25-.2.46-.43,1.26-.92,3.9-1.85,1.15.06-.2.02-.37-.17-.49-1.16-3.34-1.99-6.79-3.01-10.19.06-.21-.04-.35-.2-.46,0,0,0-.01,0-.01.03-.32,0-.63-.24-.88,0,0,0-.02,0-.02.06-.21-.04-.35-.19-.47-.18-.84-.58-1.62-.72-2.48.06-.21-.03-.36-.19-.48-.02-.07-.03-.13-.04-.2.07-.21.02-.37-.17-.49-.02-.07-.03-.13-.05-.19.06-.21-.03-.35-.2-.47,0,0,0-.01,0-.01.08-.1-.01-.17-.07-.25-.1-.27-.04-.59-.23-.84-.07-.08-.13-.2-.21-.23-1.46-.17-2.96.01-4.42-.05-.02-.01-.04-.01-.07,0-.44,0-.19.72,0,.91.12.37.24.74.36,1.11-.08.19-.01.33.11.47.34.73.47,1.52.71,2.28-.09.27.03.48.19.68.08.23.15.46.23.69-.05.12-.04.22.08.29.03.13.06.26.09.39-.1.08,0,.15.05.23,0,0,0,.01,0,.01-.06.2.01.36.18.48.01.07.03.13.05.2-.08.34.01.63.23.89.15.46.3.92.45,1.38-.08.11.02.19.08.28.02.62.31,1.15.48,1.74-.08.19,0,.32.13.45,0,0,0,.02,0,.02-.06.21.05.34.2.45,0,0,0,.02,0,.02-.05.26,0,.5.2.69.28.86.53,1.73.85,2.57.06.69.4,1.29.55,1.95-.06.31.1.54.27.76.04.19.08.39.12.58-.1.09.01.15.07.23.4,1.12.97,2.1,2.04,2.7.26.26.56.34.92.25,0,0-.03.02-.03.02.61.41,1.44.17,2.15.22.13,0,.25-.14.37-.22,0,0-.03-.02-.03-.02.29.07.51-.06.71-.25,1.68-1.11,1.94-3.37,2.52-5.16.12-.05.15-.14.14-.26.07-.31.31-.58.22-.93.02-.07.05-.14.06-.21.04-.24.4-.29.49-.06.26.76.32,1.58.66,2.33-.06.2,0,.36.17.49.22,1.39.87,2.76,2.05,3.59.11.18.25.3.48.26.19.2.42.28.7.2l-.03.02c.13.14.3.24.49.24.76-.06,1.64.21,2.3-.25-.47.02-.93.04-1.4.05.47,0,.93-.02,1.4-.05,2.95-.59,2.9-4.2,3.66-6.53.18-.14.18-.32.13-.51-.04.04-.07.07-.1.11.03-.04.06-.08.1-.11.24-.75.48-1.5.71-2.25q.16-.14.06-.28c.26-1.14.75-2.2.95-3.35.11,0,.15-.11.1-.27.08-.22.17-.44.25-.66.14-.13.25-.28.16-.48.03-.14.05-.28.08-.41.16-.12.26-.27.19-.48.06-.55.36-1.03.5-1.56.2-.2.27-.44.18-.71.01-.07.03-.14.04-.21.18-.19.3-.41.22-.69.01-.07.02-.14.03-.21.29-.42.4-.9.38-1.41.02-.07.03-.14.04-.21.25-.27.36-.59.31-.96.02-.13.05-.25.07-.38h0c.02-.08.04-.17.06-.25.08-.23.29-.42.24-.69.04-.16-.01-.24-.18-.23Zm-30.15.02h0c.1.07.2.12.3.15-.11-.03-.21-.08-.3-.15Z"/>
      <path class="cls-2" d="m310.98,107.06c.02.09.04.17.06.26.1-.13.1-.14-.06-.26Z"/>
      <path class="cls-2" d="m306.35,109.14c.02-.09.04-.18.05-.27q-.17.14-.05.27Z"/>
      <path class="cls-2" d="m195.48,33.06c-.13,17.84-.05,35.68-.03,53.52-.1.12-.08.22.03.31,0,.51-.21,1.07.06,1.54.28.48,1.32.14,1.83.23,7.71,0,15.43,0,23.14,0,.38,0,.96.06,1.17-.24.93.1,1.84.1,2.74-.22.31.09.62.02.93,0,.26.04.48-.03.65-.23.27.06.5-.02.68-.23.35.04.7.09.98-.2,0,0,.07-.02.07-.02.23.03.39-.07.53-.23.22.06.39-.03.52-.21,2.17-.98,4.34-2.27,5.99-4,2.88-3.68,4.01-8.41,3.31-13.01.11-.09,0-.17-.04-.26,0,0,0,0,0,0,.07-.27,0-.5-.22-.68-.08-.3-.16-.6-.25-.9.06-.21,0-.37-.19-.47-.02-.06-.04-.13-.05-.19.06-.2,0-.37-.18-.48,0,0,0-.02,0-.02.04-.2-.01-.36-.21-.45-.02-.06-.04-.13-.06-.19.06-.21-.07-.33-.22-.43,0,0-.01-.02-.01-.02.03-.14-.03-.22-.16-.25,0,0-.02-.03-.02-.03.03-.2-.05-.34-.23-.41-1.86-3.19-5.18-5-8.57-6.15-.31-.36-.86-.05-1.16-.45,1.03-.89,2.65-.91,3.73-1.82,3.95-2.44,6.16-6.93,5.88-11.53.12-.27.12-.52-.09-.75.04-1.32-.42-2.56-.76-3.81.07-.21.02-.37-.17-.48,0,0,0-.02,0-.02.05-.26-.02-.48-.24-.65-1.89-3.7-5.25-6.65-9.31-7.71-.26-.27-.66-.23-1.01-.28-.29-.02-.53-.24-.83-.18,0,0,.03-.03.03-.03-.55-.42-1.35-.21-2-.32-.54-.21-1.1-.17-1.65-.13-7.36-.05-14.71,0-22.07,0-.75,0-1.51,0-2.26.01-.14,0-.16.13-.2.23-.22.48-.1,1.01-.11,1.52-.1.18-.1.19.04.34Zm21.67,2.43h0c.09-.02.17-.03.26-.04-.08,0-.17.02-.26.04Zm-10.21-.73c.06-.06.13-.1.21-.13-.08.03-.15.07-.21.13Zm-.1.05s-.06.02-.09.04c.03-.01.06-.02.09-.04Zm-.52,49.61c-.08-.07-.12-.13-.11-.22,0,.09.03.15.11.22Zm14.23-.53h0c-.09.12-.19.21-.32.22.14-.01.23-.11.32-.22Zm-.47.21h0c-.07.04-.14.08-.21.11.07-.03.14-.07.21-.11Zm-.91.22h0c-.27.18-.56.3-.87.29.31,0,.6-.11.86-.29Zm.24.01c.13,0,.25-.04.37-.09-.12.05-.24.08-.37.09Zm1.34-.43s.03,0,.04,0c-.01,0-.03,0-.04,0Zm4.36,4.12c.08,0,.17.02.25.04h0c-.08-.02-.17-.03-.25-.04Zm1.46-9.6s.04-.03.06-.06c-.01.02-.03.04-.06.06Zm.41-1.22c.05-.07.08-.14.11-.22-.03.08-.06.15-.11.22Zm-.17-8.1c.09.06.13.13.16.22-.02-.09-.07-.16-.16-.22Zm-.22-.76c.1.24.14.5.21.76h0c-.1.19.04.34.09.5,0,.25.06.49.23.68.04.29.08.58.12.86-.08.13-.05.22.08.3.05.82.09,1.64.12,2.46.08.06.12.09.12.12,0-.03-.04-.06-.12-.12,0,.08,0,.16,0,.24-.03.22-.06.45-.09.67-.12.05-.06.15-.04.25.04,0,.07-.03.08-.08,0,.05-.04.08-.08.08-.07.52-.14,1.04-.21,1.55h0c-.23.21-.29.47-.25.77-.04.2-.09.4-.13.59h0c-.02.07-.04.14-.07.21.01,0,.04-.01.05-.02-.02,0-.04.01-.05.02v.02c-.15.04-.21.12-.17.26-.87,2.47-2.77,4.27-5.19,5.2-.11.11-.22.17-.35.21.13-.03.25-.1.35-.21-.28-.03-.56-.04-.75.22-.2-.03-.36.02-.47.21-.31.03-.71-.09-.91.22-.42-.03-.81.07-1.18.26h-.08c-.09.08-.19.13-.3.17.11-.04.21-.09.3-.16-3.77-.01-7.54,0-11.3,0-.04-.02-.08-.03-.12-.05-.05-.22-.1-.44-.15-.66.18-7.4.05-14.83.05-22.23-.08-.06-.12-.09-.12-.13,0,.03.04.07.12.13,0-.09-.01-.18-.02-.26.03-.31-.02-.68.27-.88.08-.09.17-.15.27-.19-.11.03-.2.1-.27.18,3.38-.02,6.75.04,10.13-.03h.1c.19.02.38.02.58.02-.19,0-.38,0-.57,0,.52.28,1.08.27,1.64.24.13.13.28.23.48.19.28.25.6.31.96.25,3.28,1.16,5.49,3.97,6.66,7.16Zm-6.51-12.86h0c-.06.08-.12.14-.19.19.07-.04.13-.11.19-.19Zm-.45.22h0c-.1.09-.21.17-.32.22.12-.05.22-.13.32-.22Zm-.17,5.24c-.15-.02-.31-.02-.47-.02,0,0,0,0,0,0,.16,0,.32,0,.47.02Zm-.95-.21h0s.1-.02.14-.02c-.05,0-.09.01-.14.02Zm5.91-19.71s-.02-.04-.05-.06c.02.02.04.04.05.06Zm-.19-.45c0-.07-.04-.13-.08-.18.05.05.08.11.08.18Zm-.24-.29c-.03.2.1.32.22.43.02.07.04.14.07.21h0c-.06.14.02.21.13.27,1,2.63.96,5.67.44,8.4q-.17.13-.06.26s.02-.1.03-.15c-.04.18-.08.36-.12.54-.09,0-.12.12-.07.25-.77,2-2.25,3.61-4.06,4.74-.1.11-.21.21-.36.23.14-.03.25-.12.36-.23-.21-.01-.41,0-.5.23-.2-.02-.36.03-.46.22-.29-.05-.51.08-.72.27-.56.2-1.16.19-1.7.44-.17.06-.33.18-.5.19.17-.01.33-.12.5-.19-.62.01-1.24.03-1.85.04-2.95-.12-5.91.09-8.86-.07-.06-.14-.12-.27-.18-.41.24-6.57.06-13.18.08-19.76.09-.25.08-.48-.07-.7.06-.14.13-.27.19-.41.01-.06.03-.1.06-.13-.03.03-.05.08-.06.13,2.33-.08,4.66-.01,7-.03.13.16.3.21.49.21.74.01,1.49.02,2.23.03h0c.13.02.26.03.4.04.1-.02.19-.02.27,0-.08-.02-.17-.03-.27,0-.13-.01-.26-.03-.4-.04.09.18.24.23.43.22.16,0,.33-.01.49-.02.32.1.62.29.97.24,2.51.67,4.58,2.29,5.87,4.53Z"/>
      <path class="cls-2" d="m65.33,66.2c.02-.09.04-.17.06-.26-.15.12-.16.12-.06.26Z"/>
      <path class="cls-2" d="m311.95,41.11c0-.06-.02-.12-.03-.18-.02.08-.03.15-.05.23.03-.02.08-.03.08-.05Z"/>
      <g>
        <path class="cls-2" d="m352.79,110.62c-2.31,0-4.19-1.88-4.19-4.19s1.88-4.19,4.19-4.19,4.19,1.88,4.19,4.19-1.88,4.19-4.19,4.19Zm0-7.63c-1.9,0-3.44,1.54-3.44,3.44s1.54,3.44,3.44,3.44,3.44-1.54,3.44-3.44-1.54-3.44-3.44-3.44Z"/>
        <path d="m351.25,108.45v-4.04h1.72c.43,0,.75.04.94.11s.35.2.47.39c.12.19.18.4.18.64,0,.3-.09.55-.27.75-.18.2-.44.32-.8.37.18.1.32.22.44.34.11.12.27.34.46.66l.49.79h-.98l-.59-.88c-.21-.31-.35-.51-.43-.59-.08-.08-.16-.14-.25-.17-.09-.03-.22-.04-.41-.04h-.17v1.69h-.82Zm.82-2.33h.6c.39,0,.63-.02.73-.05s.17-.09.23-.17c.06-.08.08-.18.08-.3,0-.14-.04-.25-.11-.33-.07-.08-.18-.14-.31-.16-.07,0-.26-.01-.59-.01h-.64v1.03Z"/>
      </g>
    </g>
  </g>
</svg>