<?xml version="1.0" encoding="UTF-8"?>
<svg id="Layer_2" data-name="Layer 2" xmlns="http://www.w3.org/2000/svg" viewBox="0 0 61.17 78.55">
  <defs>
    <style>
      .cls-1 {
        fill: #b51e3b;
      }

      .cls-2 {
        fill: #231e20;
      }
    </style>
  </defs>
  <g id="Layer_1-2" data-name="Layer 1">
    <g>
      <path class="cls-2" d="m61.09,30.14c-.03-.31-.05-.62-.08-.94.05-.13.05-.26-.07-.36-.01-.15-.03-.29-.04-.44q.08-.09-.03-.19c-.02-.1-.03-.2-.05-.31.08-.25.1-.49-.08-.71-.02-.14-.05-.29-.07-.43.04-.14.01-.27-.11-.36-.04-.37-.08-.73-.12-1.1,0-.3-.07-.57-.23-.83h0c-.01-.1-.03-.2-.04-.31.05-.14.02-.26-.11-.36-.05-.37-.22-.72-.22-1.1-.86-3.21-2.31-6.22-4.02-9.08.02-.09,0-.16-.1-.19-.02-.05-.04-.09-.06-.14,0-.23-.14-.36-.33-.45,0,0-.02-.02-.02-.02,0-.1-.04-.14-.14-.15,0,0-.02-.02-.02-.02,0-.1-.05-.15-.14-.16-3.64-5.17-8.97-9.15-15.02-11.01-.13-.18-.31-.22-.52-.19-.13-.17-.31-.16-.5-.14-.18-.2-.41-.2-.64-.17-.19-.16-.41-.18-.64-.16-.14-.22-.43-.14-.65-.16-.24-.2-.53-.2-.82-.16,0,0,.01-.02.01-.02-.21-.21-.53-.22-.81-.15,0,0,0,0,0,0-.37-.23-1.17-.2-1.62-.16,0,0,0,.01,0,.01-.56-.26-1.23-.13-1.83-.18-1.54.09-3.17-.2-4.66.17-.32-.05-.64,0-.96.02-.3-.02-.59-.05-.86.13-.26.05-.51.1-.77.16-.35.03-.71-.04-1.01.17h0c-.13.06-.27.11-.4.17-.27-.03-.51.04-.74.16-.14.05-.29.09-.43.14-.23.03-.51-.03-.67.17-.16-.03-.29,0-.38.16,0,0-.05.02-.05.02-.2-.02-.37.06-.53.16-.17-.05-.28.03-.37.16C11.67,4.73,4.86,11.97,2.07,20.44c-.11.08-.19.18-.14.34-.01.05-.02.1-.03.15-.12.13-.22.28-.17.47,0,0,0,0,0,0-.08.05-.12.11-.06.2-.02.1-.05.2-.07.3-.12.14-.23.28-.17.49-.01.05-.02.09-.03.14-.14.09-.16.21-.11.36-.01.05-.02.1-.03.14-.13.13-.21.28-.17.48-.05.27-.09.55-.14.82-.11.14-.22.29-.17.49-.02.1-.03.2-.05.3-.18.19-.15.43-.13.67,0,0,0,0,0,0-.09.04-.04.11-.03.18-.02.09-.04.18-.06.27-.12.19-.24.51-.15.71,0,.2-.01.39-.02.59-.04.27-.08.53-.12.8-.16.21-.11.45-.1.68,0,0,0,0,0,0-.09.04-.04.11-.03.18H.11c-.03.31-.06.62-.09.93,0,.07.01.14.02.21-.04,1.55-.02,3.09,0,4.64-.07.09-.05.16.04.22.04.36.08.72.12,1.07-.04.24.03.46.11.68.04-.11.05-.22.04-.32.01.11,0,.21-.04.32,0,.1.02.2.03.3-.06.19-.08.37.06.54.03.2.06.4.08.61-.06.2.02.35.14.5.01.15.03.31.04.46-.08.2-.01.36.13.5.06.16.11.32.17.48-.03.07.01.12.04.18.01.09.02.19.03.28-.1.19-.05.36.09.51.06.16.11.33.17.49h0c-.05.19,0,.36.14.5,0,.05.02.1.03.14h0c.01.12-.01.29.13.34.01.05.02.09.03.14-.06.19-.03.36.13.5,0,0,0,.01,0,.01-.05.2.06.33.18.46,0,.05.02.1.03.15-.06.15.02.25.12.34.11.32.22.65.33.97-.04.19.04.34.16.48,1.77,4.1,4.26,8,7.58,10.99,2.55,2.41,5.54,4.26,8.76,5.66.1.1.2.18.35.16.2.16.41.25.67.2.14.05.27.09.41.14.17.11.35.22.57.17.56.18,1.12.37,1.7.48.27.2.59.23.92.22.22,0,.41.15.63.11.34.08.67.19,1.03.19.14,0,.31.16.34.31.13,3.42,0,6.85.04,10.27.01,1.21-.04,2.43,0,3.64.02.05.05.11.08.12.13.03.27.03.36-.08.63-.55,1.31-1.04,1.94-1.58,1.89-1.52,3.8-3.01,5.72-4.5.57-.45,1.13-.92,1.69-1.38.18-.15.25-.33.25-.57-.02-.62-.03-1.24-.04-1.86v-.19c.11-1.33-.11-2.71.09-4.02.48-.03,1.05-.02,1.43-.33,0,0-.02-.01-.02-.01.25.07.44-.08.65-.17.31.07.59.02.84-.17h0c.4-.11.81-.22,1.21-.33.22.04.4-.04.58-.15h0c1.08-.37,2.17-.7,3.16-1.27.21.02.36-.07.5-.21.14.01.24-.06.33-.16.14.02.24-.06.32-.16.11,0,.17-.05.22-.14,6.57-3.35,11.37-9.4,14.06-16.18.13-.13.22-.28.17-.48,0-.05.02-.1.03-.15.07,0,.11-.06.11-.18,0-.06,0-.11,0-.17.01-.05.03-.09.03-.14.12-.08.17-.2.13-.34.33-1.05.62-2.14.84-3.22.2-.25.16-.58.28-.86.02-.04-.02-.1-.02-.15-.01-.49.09-.97.21-1.45.08-.09.15-.19.1-.32.07-.21.05-.42.04-.63,0-.06.01-.12.02-.17.04-.32.08-.63.12-.95.07,0,.08-.11.03-.2.01-.26.03-.52.04-.78.06,0,.09-.12.04-.2.02-.09.03-.18.05-.28.04,0,.04-.12,0-.21,0-1.28,0-2.55,0-3.83.07-.09.06-.16-.03-.22Zm-14.47-12.5s0-.04,0-.06c0,.02,0,.04,0,.06Zm-.26-1.04c-.02-.06-.05-.12-.09-.18.03.06.06.12.09.18Zm-.25-.7s-.02-.04-.03-.06c.01.02.02.04.03.06Zm-1.02-2.5s0,0,0-.01c0,0,0,0,0,.01Zm-10.94-8.98s0,0,0,0c.07,0,.14,0,.21,0-.07,0-.14,0-.21,0Zm.81.15h0s.1-.01.14,0c-.04,0-.09,0-.14,0ZM26.6.35c-.08,0-.17,0-.26,0,0,0-.01,0-.02,0,0,0,.01,0,.02,0,.09,0,.17.01.26,0Zm-.67.04c-.07,0-.14,0-.21,0,.07,0,.14,0,.21,0Zm-10.59,14.67s-.02.06-.02.09c0-.03,0-.06.02-.09Zm-.25.74s-.07.1-.08.16c0-.06.03-.12.08-.16Zm-.96,2.8c-.05.07-.08.15-.09.24,0-.09.04-.17.09-.24Zm-.15,27.14s0,.03,0,.04c0-.01,0-.02,0-.04Zm22.1,14.05s0,0,0,0c-.03.02-.05.05-.08.07.03-.02.05-.05.08-.07Zm9.86-10.5s.02-.06.02-.09c0,.03-.01.06-.02.09Zm.56-1.66s.04-.06.03-.1c0,.04,0,.08-.03.1Zm1.01-3.45s-.02.04-.03.06c.01-.01.02-.03.03-.06Zm.88-5.34s.03-.05.03-.08c0,.03-.01.06-.03.08Zm.19-3.74c-.02.34-.04.69-.06,1.03-.12.09-.13.1-.02.21-.01.47.05.94-.04,1.41-.07,0-.08.11-.03.2-.01.21-.02.41-.03.62h0c-.08.1-.13.21-.07.34-.02,1.38-.38,2.68-.58,4.04-.18.18-.2.41-.16.65-.02.15-.05.31-.07.46-.1.04-.11.11-.07.2-.13.57-.26,1.15-.48,1.69.02.4-.2.71-.35,1.05-.01.06-.03.12-.04.18-.02.09-.04.19-.05.28-.07,0-.1.08-.06.19l-.33.98h0c-.14.13-.22.27-.17.47h0c-.11.09-.18.19-.14.34-.06.16-.11.32-.17.49h0c-.1.09-.19.18-.14.34-.01.05-.02.09-.03.14h0c-.11.09-.18.18-.14.33-1.82,3.82-4.69,7.33-8.72,8.89-.07.07-.15.12-.23.15.09-.03.16-.08.23-.15-.19,0-.39-.02-.52.17-.16,0-.31,0-.47,0l-.07-.3c0-.06,0-.12.01-.19,0-.21,0-.42,0-.63v-.18c-.04-1.88.05-3.78-.02-5.64h0c.05-.1,0-.15-.1-.17-1.61-1.61-3.16-3.3-4.71-4.98-.12-.13-.34-.14-.42,0-.52.83-1.28,1.45-1.96,2.14-.94.97-1.79,2.01-2.78,2.94-.07,2.2,0,4.41-.02,6.61,0,.11,0,.21-.03.32-.05.19-.28.12-.41.09-.11.02-.21,0-.3-.03.09.03.19.05.3.03-.15-.17-.34-.21-.56-.18-4.78-1.81-7.92-6.29-9.55-10.98.05-.15.01-.26-.12-.34h0c.03-.16,0-.27-.15-.33v-.02c.01-.13,0-.25-.13-.33-.02-.1-.03-.21-.05-.31h0c.04-.15-.02-.25-.15-.32-.12-.37-.23-.75-.35-1.12h0c-.04-.15-.07-.3-.11-.46.08-.07,0-.13-.04-.2,0-.05-.02-.1-.03-.14.06-.2-.03-.35-.15-.49-.03-.16-.05-.32-.08-.47.07-.14,0-.24-.08-.34-.06-.27-.12-.53-.18-.8.06-.07,0-.13-.05-.19-.04-.37-.08-.73-.12-1.1.06-.19,0-.36-.12-.51-.03-.36-.06-.73-.09-1.09.06-.09.04-.16-.05-.22-.02-.15-.04-.3-.07-.44.05-.14.04-.27-.09-.37-.03-.58-.06-1.16-.09-1.74.01-.05.02-.11.03-.16.03-.09.02-.16-.08-.19-.08-.85-.06-1.7-.11-2.56h0c0-.07-.01-.14-.02-.21,0-.15,0-.29,0-.44.04,0,.04-.12,0-.21,0-1.71,0-3.42.1-5.13.11-.11.11-.11.02-.22,0-.08,0-.17,0-.25,0,0,0,0,0,0,.08-.07.1-.14.03-.22.03-.58.06-1.16.1-1.74.17-.2.16-.43.13-.67.02-.15.04-.3.06-.45h0c.09-.06.11-.13.05-.22.02-.15.03-.3.05-.46.08-.13.08-.17.01-.32,0-.1.02-.21.02-.31h0c.14-.15.18-.31.13-.51.03-.32.06-.63.1-.95.09-.05.1-.12.05-.2l.18-.79h0c.08-.1.15-.21.08-.34.02-.16.05-.32.07-.48h0c.1-.14.21-.28.16-.47h0s0,0,0,0c.09-.03.04-.1.03-.17.01-.1.03-.19.04-.29.12-.09.12-.22.08-.35h0s0,0,0,0c.13-.13.23-.28.16-.48.19-.84.5-1.64.81-2.43h0c.1-.09.19-.17.15-.32.02-.05.03-.09.04-.14h0c.09-.05.13-.11.08-.21.02-.05.03-.1.05-.15.09-.09.18-.18.14-.32.23-.53.46-1.07.69-1.6h0c.22-.16.31-.38.31-.65,2.02-3.76,5.34-6.96,9.53-8.09.04-.03.09-.07.13-.08-.05,0-.09.05-.13.08.66.04,1.28-.19,1.94-.22.07,0,.14-.07.2-.11l-.02-.02c.4.05.78.02,1.15-.16h.02c.85-.01,1.7,0,2.55,0h.01c.1,0,.2,0,.29,0-.1,0-.19,0-.29.01.3.19.64.17.98.2.42.18.86.15,1.29.14.24.19.53.15.81.15.14.15.32.21.53.17.31.08.63.14.91.29.11-.01.21-.01.3.01-.09-.03-.2-.03-.3-.01.16.12.34.21.55.19,3.62,1.6,6.23,4.67,8.05,8.1-.03.14.05.24.16.31h0c.02.31.16.57.33.8.11.27.21.55.32.82-.05.19.05.33.18.46h0c-.05.21.04.35.16.48,0-.05.01-.09.01-.14,0,.04,0,.09-.01.14h0s0,.01,0,.01c.03.3.08.59.3.81l.1.45h0c-.07.09-.02.15.05.21.01.05.03.09.04.14h0c0,.21.08.39.25.52.03.32.1.64.24.93h0c-.04.1-.01.17.08.21.02.1.03.19.05.29-.05.24.03.44.17.62v.02h0c0,.05,0,.11,0,.16-.01.09,0,.16.1.18.05.38.04.78.2,1.14-.06.05,0,.09.03.13.14.37.1.76.15,1.13-.06.2,0,.36.14.5.01.05.02.09.03.14-.05.14-.02.27.11.36.03.52.07,1.05.1,1.57.02.01.04.03.05.04-.01-.02-.03-.03-.05-.04-.06.09-.03.16.06.22.02.25.05.51.07.76-.05.11-.04.22-.01.34-.02.08-.02.15.07.19,0-.01,0-.02,0-.03v.03c0,1.07.07,2.13.13,3.2-.05.14.01.24.09.34,0,1.07,0,2.15,0,3.22-.1.1-.15.21-.1.35-.01.24-.02.48-.03.71ZM16.23,13.1s-.02.06-.02.1c0-.03.01-.06.02-.1Z"/>
      <path class="cls-1" d="m43.9,24.44v-.19c.07-.09.07-.18.01-.27-.01-.06-.02-.13-.03-.19h0c.05-.06.03-.1-.03-.15-.05-.22-.09-.45-.14-.67.04-.11-.01-.18-.09-.24,0-.03-.01-.07-.02-.1.03-.1,0-.18-.09-.24,0,0,0,0,0,0,.02-.11-.03-.17-.12-.22-.46-.82-1.17-1.59-2.05-1.94-.07-.04-.13-.09-.2-.1-.42-.04-.9-.11-1.28.11,0,0,0,0,0,0-.08-.01-.14.03-.18.09-1.51.52-2.55,1.78-3.62,2.88-.99.89-1.8,1.97-2.87,2.78-.53.47-1,1-1.58,1.4,0,0,0,0,0,0-.23.03-.47.03-.7.01h0c-.07-.07-.15-.15-.22-.22.02-.1-.04-.17-.11-.22,0,0,0,0,0,0,.02-.1,0-.18-.1-.23-.05-.44-.11-.89-.07-1.34.06-.09.06-.1-.02-.16,0-.47,0-.95,0-1.42.05-.05.05-.11.02-.17,0-.38.02-.75.03-1.13,0-.04,0-.08,0-.13.02-.38.05-.75.07-1.13.07-.03.08-.08.05-.14,0-.26.02-.52.03-.78.06-.03.03-.08.02-.14.08-.86.01-1.73.03-2.6.08-.14.01-.25-.06-.36-.02-.42-.13-.82-.17-1.24.03-.07,0-.1-.06-.13-.31-.69-.95-1.12-1.68-1.27-.07-.07-.16-.1-.25-.1-.57.05-1.2-.1-1.74.12,0,0,0,0,0,0-.21-.03-.41-.01-.59.12-.98.34-2.02.91-2.38,1.95-.1.1-.15.21-.1.35h0c0,.22.01.45.02.67-.05.14.02.24.09.35,0,0,0,0,0,0,0,.04.01.09.02.13.01.07.03.13.04.2-.04.13.03.24.07.36,0,.06.02.1.08.12,0,.03.02.07.03.1-.03.11.02.17.1.23.78,1.6,1.55,3.22,2.39,4.79.56.99,1.16,1.98,1.41,3.1,0,.05.01.09.02.14,0,.14.04.29,0,.43-.01.04-.02.08-.03.13-.09.17-.18.33-.34.44-.23,0-.47,0-.7,0-.06-.03-.13-.06-.19-.09-.14-.15-.32-.12-.49-.12-.09-.1-.2-.15-.34-.12-.1-.13-.23-.13-.38-.11-.32-.06-.65-.13-.96-.24-.12-.12-.27-.12-.42-.11h0c-.09-.04-.19-.07-.28-.11-.11-.12-.25-.15-.4-.12-.25-.11-.5-.22-.75-.33-.11-.12-.25-.14-.4-.12-.09-.04-.18-.08-.27-.12-.06-.1-.15-.13-.25-.13-.04-.12-.14-.12-.24-.1-.06-.1-.16-.12-.27-.1-.17-.08-.34-.15-.51-.23-.06-.1-.14-.14-.25-.13-.08-.13-.21-.13-.34-.11-.07-.09-.15-.13-.27-.1-.13-.04-.26-.08-.39-.12-.1-.12-.23-.13-.38-.12-.09-.12-.22-.13-.35-.11-.24-.14-.53-.15-.8-.12-.07-.08-.15-.11-.26-.08-.4-.06-.8-.02-1.2-.02-.1,0-.18.06-.25.12,0,0,0-.02,0-.02-.15-.03-.28,0-.38.11-.14.08-.29.16-.43.24-.07-.01-.11.01-.1.09,0,0-.02.02-.02.02q-.09,0-.09.09s-.02.02-.02.02c-.09,0-.1,0-.09.1,0,0-.01.02-.01.02-.11.03-.13.11-.12.21,0,0,0,.01,0,.01-.1.05-.12.12-.1.22,0,0,0,.01,0,.01-.1.04-.13.12-.11.22,0,0,0,0,0,0-.12.08-.14.2-.12.33,0,0,0,0,0,0-.09.06-.12.14-.09.24,0,.03-.02.07-.02.1-.08.07-.12.15-.07.25-.01.07-.03.14-.04.21-.08.07-.12.15-.07.25,0,.37,0,.74.01,1.1-.05.06-.04.11.03.16.03.48.15.94.41,1.35.24.48.75.68,1.21.91.11.09.23.15.37.11.16.07.31.13.49.11.82.04,1.65.08,2.46-.11.19-.03.38-.06.57-.11.05-.05.1-.08.16-.09-.06.02-.11.04-.16.09.22.01.43,0,.63-.1.18-.02.39.02.53-.12,0,0,.05,0,.05,0h.05c.32-.04.68.06.97-.12.13-.04.26-.08.39-.12.13-.1.28-.15.45-.14-.16,0-.32.04-.45.14.22.04.41-.06.6-.12.28.05.55.06.8-.11.28.03.54,0,.8-.11.24.04.46-.03.69-.11.92.04,1.3-.04,2.09.11.19.06.33.18.43.35,0,.15,0,.3,0,.45-1.1,2.07-2.8,3.74-4.3,5.52-.62.97-1.61,1.73-2.01,2.82-.06.03-.09.07-.07.14-.02.03-.03.07-.03.1-.08.06-.12.13-.09.24-.05.47-.28.93-.01,1.37.25.93,1.08,1.54,1.92,1.94.04.06.09.1.16.1.06.07.12.13.23.11.1.08.2.15.34.13,0,0-.01,0-.01,0,.09.12.21.15.35.11.13.13.29.14.46.11,0,0-.01,0-.01,0,.04.03.09.09.13.09.29.02.67.12.9-.1h-.01c.18.02.35.01.5-.12.69-.26,1.17-.83,1.46-1.49.22-.21.2-.54.3-.81.02-.14.05-.28.07-.42.13-.14.2-.29.18-.48.01-.14.03-.29.04-.43q.07-.08.02-.15l.07-.45c.05-.06.08-.13.04-.22.08-.26.06-.53.09-.8.05-.02.03-.07.02-.11.11-.84.32-1.66.36-2.51.12-.09.11-.22.08-.35,0-.04,0-.08,0-.11.06-.03.03-.08.03-.13.09-.26.07-.53.08-.8.05-.07.1-.14.08-.23.01-.07.03-.14.04-.22.06-.07.1-.15.07-.24.06-.19.05-.4.15-.58.05,0,.07-.06.04-.12.02-.11.05-.22.07-.34.19-.36.29-.81.67-1.02.17,0,.34,0,.5,0,1.14.75,1.74,1.98,2.5,3.06,1.04,1.66,1.98,3.39,3.22,4.9.32.4.65.8,1.12,1.04.07.07.14.13.25.12.1.09.2.16.34.12,0,0-.02.01-.02.01.37.22.84.12,1.24.08.05,0,.09-.05.14-.08h0s-.02-.01-.02-.01c.14.03.25-.04.35-.11.14.03.24-.03.32-.13-.1,0-.19,0-.26.06.07-.06.16-.07.26-.06,0-.02,0-.04.01-.05,0,.01-.01.03-.01.05.07,0,.12-.04.13-.11.73-.59,1.37-1.27,1.71-2.16.07-.06.13-.11.11-.22,0,0,0-.02,0-.02.07-.06.12-.13.07-.23.01-.11.03-.22.04-.33.14-.29.18-.6.13-.91.04-.21-.08-.55-.22-.68,0,0,0-.02,0-.02,0-.16-.1-.25-.23-.32-1.09-1.29-2.71-1.87-4.18-2.61-1.44-.77-2.93-1.47-4.33-2.31-1.29-.92-1.52-1.2-.1-2.18.15.04.26-.05.37-.13.14.03.25-.04.36-.12.06-.03.12-.06.19-.09.21,0,.41-.02.6-.14.04,0,.08,0,.11,0,.1,0,.18-.03.24-.1.39.03.82-.03,1.15-.23,0,0-.02-.01-.02-.01.14.04.25-.04.35-.11.21.04.4.01.57-.12.3-.07.66-.03.91-.24,0,0,0,0,0,0,.1.01.17-.05.24-.1.17.04.32-.02.46-.11.17.04.3-.08.46-.12.17.05.32,0,.46-.11.14.02.24-.05.34-.12.17.03.32-.03.46-.1.17.04.31-.06.45-.13.14.03.24-.04.34-.12.11.02.18-.05.25-.11.26-.12.52-.24.79-.36.07.02.09-.01.11-.07,0,0,.02-.01.02-.01.1.02.14-.04.18-.11,0,0,.03-.02.03-.02.06.01.09-.02.1-.08,0,0,.02-.01.02-.01.09.01.14-.05.17-.12,0,0,.04-.03.04-.03.06,0,.08-.02.08-.08,0,0,.03-.03.03-.03.06,0,.09-.03.08-.08,0,0,.03-.03.03-.03.06,0,.09-.03.09-.08,0,0,.03-.03.03-.03.06,0,.09-.03.09-.09,0,0,.02-.03.02-.03.08-.04.14-.08.13-.19,0,0,0-.01,0-.01.06-.02.1-.06.08-.12.02-.06.04-.13.07-.19.1-.06.1-.15.07-.25,0,0,0,0,0,0,.06-.07.12-.15.06-.25Zm-27.63,7.22s0,0,0,0c.08-.02.15-.02.23-.01-.07,0-.15,0-.23.01Zm3.79-.22s.09,0,.14-.01c-.05,0-.09,0-.14.01Zm14.72-2.88h0s.03-.06.05-.07c-.02.01-.04.04-.05.07Z"/>
    </g>
  </g>
</svg>